<svg width="424" height="283" viewBox="0 0 424 283" fill="none" xmlns="http://www.w3.org/2000/svg">
<path d="M124.307 69.2015L60.874 111.683L123.352 205.195L186.785 162.714L124.307 69.2015Z" fill="#F5F5F5"/>
<path d="M154.008 158.287L153.288 162.748L121.755 158.2L122.475 153.739L154.008 158.287Z" fill="#E0E0E0"/>
<path d="M138.128 142.375L142.653 143.028L137.636 174.111L133.11 173.459L138.128 142.375Z" fill="#E0E0E0"/>
<path d="M109.082 102.868C109.127 102.936 102.77 107.272 94.8854 112.552C86.9979 117.834 80.5689 122.06 80.5237 121.992C80.4785 121.925 86.8339 117.589 94.722 112.307C102.607 107.027 109.037 102.801 109.082 102.868Z" fill="#E0E0E0"/>
<path d="M132.41 97.0054C132.455 97.0733 121.884 104.231 108.802 112.991C95.7155 121.755 85.0737 128.802 85.0285 128.734C84.9832 128.667 95.5521 121.51 108.638 112.746C121.72 103.986 132.365 96.938 132.41 97.0054Z" fill="#E0E0E0"/>
<path d="M137.086 104.004C137.131 104.072 126.56 111.23 113.478 119.99C100.391 128.754 89.7495 135.801 89.7042 135.733C89.659 135.665 100.228 128.509 113.314 119.745C126.397 110.985 137.041 103.937 137.086 104.004Z" fill="#E0E0E0"/>
<path d="M141.762 111.004C141.807 111.072 131.236 118.231 118.154 126.99C105.067 135.754 94.4253 142.801 94.38 142.733C94.3348 142.666 104.904 135.509 117.99 126.745C131.072 117.985 141.717 110.936 141.762 111.004Z" fill="#E0E0E0"/>
<path d="M146.439 118.003C146.484 118.071 135.913 125.229 122.831 133.99C109.744 142.753 99.102 149.8 99.0568 149.732C99.0116 149.664 109.58 142.508 122.667 133.744C135.749 124.984 146.393 117.936 146.439 118.003Z" fill="#E0E0E0"/>
<path d="M336.418 131.864L283.145 167.541L335.616 246.076L388.889 210.399L336.418 131.864Z" fill="#F5F5F5"/>
<path d="M361.36 206.692L360.756 210.438L334.273 206.618L334.878 202.872L361.36 206.692Z" fill="#E0E0E0"/>
<path d="M348.023 193.328L351.824 193.877L347.61 219.981L343.81 219.433L348.023 193.328Z" fill="#E0E0E0"/>
<path d="M323.631 160.148C323.676 160.216 318.343 163.866 311.721 168.301C305.096 172.737 299.692 176.277 299.646 176.209C299.601 176.141 304.933 172.492 311.557 168.056C318.179 163.622 323.585 160.081 323.631 160.148Z" fill="#E0E0E0"/>
<path d="M343.222 155.225C343.267 155.293 334.395 161.313 323.408 168.671C312.418 176.03 303.475 181.94 303.429 181.872C303.384 181.804 312.254 175.785 323.245 168.425C334.231 161.069 343.176 155.158 343.222 155.225Z" fill="#E0E0E0"/>
<path d="M347.149 161.103C347.194 161.171 338.323 167.192 327.336 174.548C316.345 181.908 307.402 187.818 307.357 187.75C307.312 187.682 316.182 181.663 327.173 174.303C338.159 166.946 347.104 161.035 347.149 161.103Z" fill="#E0E0E0"/>
<path d="M351.076 166.981C351.121 167.049 342.249 173.069 331.263 180.426C320.272 187.786 311.329 193.696 311.284 193.628C311.239 193.56 320.109 187.541 331.099 180.181C342.086 172.824 351.031 166.914 351.076 166.981Z" fill="#E0E0E0"/>
<path d="M355.003 172.86C355.048 172.928 346.177 178.948 335.19 186.305C324.199 193.665 315.256 199.575 315.211 199.507C315.166 199.439 324.036 193.42 335.027 186.06C346.013 178.703 354.958 172.792 355.003 172.86Z" fill="#E0E0E0"/>
<path d="M252.133 72.6333L194.007 41.5098L148.233 127.2L206.359 158.323L252.133 72.6333Z" fill="#F5F5F5"/>
<path d="M196.409 131.519L192.722 132.784L183.361 106.876L187.049 105.611L196.409 131.519Z" fill="#E0E0E0"/>
<path d="M202.063 112.933L203.407 116.651L177.707 125.463L176.364 121.745L202.063 112.933Z" fill="#E0E0E0"/>
<path d="M220.324 74.7075C220.278 74.793 214.383 71.7247 207.157 67.8561C199.929 63.9858 194.109 60.7805 194.155 60.6951C194.2 60.6102 200.095 63.6773 207.322 67.5471C214.548 71.4163 220.37 74.6226 220.324 74.7075Z" fill="#E0E0E0"/>
<path d="M234.273 90.122C234.227 90.2074 224.47 85.0716 212.483 78.6531C200.491 72.2318 190.809 66.9596 190.855 66.8741C190.901 66.7892 200.656 71.9234 212.648 78.3446C224.635 84.7631 234.319 90.0365 234.273 90.122Z" fill="#E0E0E0"/>
<path d="M230.846 96.5356C230.801 96.6211 221.044 91.4852 209.056 85.0662C197.064 78.6449 187.383 73.3726 187.429 73.2872C187.475 73.2023 197.229 78.3365 209.221 84.7577C221.209 91.1762 230.892 96.4502 230.846 96.5356Z" fill="#E0E0E0"/>
<path d="M227.42 102.95C227.374 103.035 217.617 97.8993 205.63 91.4803C193.638 85.0596 183.957 79.7867 184.003 79.7012C184.048 79.6158 193.803 84.7505 205.795 91.1718C217.782 97.5908 227.466 102.865 227.42 102.95Z" fill="#E0E0E0"/>
<path d="M223.994 109.363C223.949 109.448 214.192 104.312 202.204 97.8933C190.212 91.4726 180.531 86.1998 180.577 86.1143C180.623 86.0294 190.377 91.1636 202.369 97.5849C214.357 104.004 224.04 109.278 223.994 109.363Z" fill="#E0E0E0"/>
<path opacity="0.2" d="M224.299 0H222.838V24.8944H224.299V0Z" fill="black"/>
<path d="M189.519 55.0088H257.619C257.619 55.0088 251.332 24.8789 223.053 24.8789C197.9 24.8783 189.519 55.0088 189.519 55.0088Z" fill="#B747D0"/>
<path d="M224.299 0H222.839V24.8944H224.299V0Z" fill="#B747D0"/>
<path d="M375.193 248.943C375.193 249.025 302.123 249.09 212.008 249.09C121.862 249.09 48.8076 249.024 48.8076 248.943C48.8076 248.862 121.862 248.796 212.008 248.796C302.123 248.796 375.193 248.862 375.193 248.943Z" fill="#263238"/>
<path d="M66.8711 213.496C68.7825 213.563 70.5769 214.602 71.8376 216.043C73.0983 217.482 73.8711 219.293 74.3658 221.143C75.3223 224.722 74.7344 228.946 73.7151 232.507C69.8448 231.122 67.4585 226.991 66.3793 224.818C64.6731 221.384 63.6731 214.142 66.8711 213.496Z" fill="#9223AA"/>
<path d="M79.2838 236.845C78.0627 235.09 78.0338 232.649 78.9994 230.74C79.9645 228.832 81.8193 227.456 83.8619 226.828C84.8065 226.537 85.9021 226.415 86.7236 226.965C87.4919 227.478 87.8237 228.486 87.7242 229.405C87.6253 230.324 87.16 231.166 86.6111 231.91C84.7291 234.461 82.4401 236.583 79.2838 236.845Z" fill="#9223AA"/>
<path d="M79.7093 248.805C79.6906 248.808 79.6318 248.542 79.5363 248.061C79.4328 247.53 79.2988 246.845 79.1383 246.021C78.833 244.306 78.3485 241.867 78.7148 239.171C79.067 236.486 80.1344 234.192 81.2532 232.821C81.8038 232.128 82.3313 231.637 82.7214 231.336C82.9102 231.177 83.0764 231.079 83.1821 231.005C83.2901 230.933 83.3495 230.9 83.3551 230.907C83.3975 230.955 82.4506 231.539 81.4041 232.937C80.3441 234.312 79.3282 236.567 78.9811 239.207C78.6204 241.848 79.0671 244.265 79.3254 245.989C79.4639 246.855 79.5753 247.557 79.6397 248.044C79.7036 248.531 79.7274 248.802 79.7093 248.805Z" fill="#263238"/>
<path d="M68.1194 218.943C68.1278 218.94 68.1815 219.041 68.2754 219.237C68.3783 219.46 68.5106 219.746 68.674 220.099C69.016 220.85 69.4965 221.943 70.0794 223.299C71.2457 226.009 72.8037 229.777 74.4307 233.976C76.0572 238.176 77.4434 242.011 78.4073 244.8C78.8901 246.195 79.2706 247.326 79.5238 248.112C79.6414 248.484 79.7364 248.784 79.8099 249.018C79.8726 249.226 79.9009 249.337 79.8924 249.34C79.8834 249.343 79.8382 249.238 79.759 249.035C79.6731 248.806 79.5623 248.511 79.4255 248.146C79.1315 247.339 78.7256 246.226 78.2287 244.863C77.219 242.092 75.8056 238.27 74.1803 234.073C72.5544 229.877 71.0246 226.101 69.9041 223.372C69.3535 222.031 68.9035 220.935 68.5773 220.141C68.4326 219.779 68.3155 219.486 68.2245 219.258C68.1476 219.056 68.1109 218.947 68.1194 218.943Z" fill="#263238"/>
<path d="M75.1154 240.892C72.8332 237.004 68.5717 234.353 64.079 234.027C62.9348 233.944 61.5587 234.137 61.0488 235.165C60.5377 236.195 61.2212 237.415 62.0008 238.26C65.2436 241.777 70.7296 243.003 75.1584 241.2" fill="#9223AA"/>
<path d="M65.8213 237.093C65.8224 237.074 66.0768 237.085 66.5376 237.12C66.7682 237.136 67.0504 237.156 67.3732 237.216C67.6954 237.276 68.0702 237.312 68.4693 237.423C68.8713 237.522 69.3145 237.62 69.7736 237.786C70.2417 237.925 70.7222 238.125 71.227 238.339C72.2243 238.792 73.282 239.385 74.2894 240.157C75.2895 240.937 76.1341 241.81 76.821 242.665C77.1512 243.103 77.4666 243.519 77.7125 243.941C77.9845 244.347 78.1863 244.755 78.3757 245.123C78.5786 245.485 78.6985 245.842 78.8313 246.143C78.9653 246.443 79.049 246.714 79.1157 246.936C79.2531 247.378 79.3198 247.624 79.3023 247.629C79.2452 247.648 78.9698 246.659 78.2078 245.21C78.0099 244.852 77.8013 244.456 77.5254 244.061C77.2755 243.65 76.9578 243.247 76.6282 242.819C75.9419 241.987 75.108 241.136 74.1261 240.37C73.1367 239.612 72.1016 239.023 71.1253 238.565C70.6312 238.348 70.1608 238.142 69.7023 237.997C69.2535 237.825 68.8181 237.717 68.4241 237.608C66.8383 237.206 65.8151 237.151 65.8213 237.093Z" fill="#263238"/>
<path d="M322.444 59.6985C320.782 60.0816 319.972 61.9964 319.815 63.6972C319.657 65.3975 319.873 67.1934 319.16 68.7448C318.358 70.4909 316.44 71.778 316.376 73.6996C316.337 74.8707 317.032 75.9721 316.999 77.1437C316.944 79.0675 314.984 80.5216 314.881 82.4437C314.807 83.8276 315.728 85.156 315.507 86.524C315.334 87.5887 314.507 88.4275 314.157 89.4474C313.459 91.4811 314.854 93.7196 316.672 94.864C318.697 96.1398 321.291 96.4686 323.57 95.7396C325.849 95.0106 327.772 93.2362 328.683 91.0215C329.689 88.5769 329.469 85.8244 329.251 83.1903C328.57 74.9799 328.063 66.7553 327.733 58.5234" fill="#263238"/>
<path d="M317.618 88.671C317.582 88.6388 318.072 88.4927 318.377 87.7666C318.525 87.4117 318.601 86.934 318.571 86.3849C318.552 85.8325 318.363 85.2309 318.159 84.5522C317.969 83.8798 317.722 83.0993 317.863 82.2316C318.006 81.3504 318.636 80.6265 319.211 79.9156C319.5 79.555 319.791 79.1803 319.974 78.7541C320.167 78.3325 320.208 77.8497 320.062 77.3969C319.77 76.472 318.865 75.7917 318.45 74.7242C318.244 74.1893 318.242 73.6018 318.359 73.0726C318.471 72.5383 318.687 72.0533 318.904 71.5914C319.347 70.67 319.834 69.8249 320.028 68.9278C320.424 67.1325 320.239 65.4186 320.509 64.011C320.754 62.6005 321.349 61.5404 321.939 60.9953C322.226 60.7135 322.504 60.5635 322.686 60.4621C322.879 60.3789 322.981 60.3405 322.985 60.3501C323.004 60.3818 322.566 60.5165 322.02 61.0763C321.475 61.6281 320.928 62.665 320.714 64.0455C320.602 64.7321 320.586 65.5041 320.557 66.3327C320.528 67.1608 320.502 68.0601 320.292 68.9895C320.095 69.9313 319.595 70.8098 319.165 71.7148C318.74 72.604 318.349 73.6466 318.725 74.6212C319.084 75.5845 319.995 76.2688 320.337 77.3097C320.504 77.8276 320.449 78.4015 320.231 78.8656C320.024 79.3377 319.716 79.7237 319.42 80.0859C318.83 80.8014 318.238 81.4817 318.103 82.2741C317.962 83.062 318.18 83.8221 318.358 84.4951C318.548 85.168 318.73 85.802 318.735 86.3776C318.75 86.9481 318.654 87.4451 318.482 87.8124C318.311 88.182 318.078 88.4107 317.903 88.5267C317.729 88.6461 317.618 88.671 317.618 88.671Z" fill="#455A64"/>
<path d="M313.167 102.087L308.064 116.815L286.783 117.958L283.234 125.863L305.452 128.114C309.883 129.948 314.944 127.7 316.561 123.182L322.491 106.612L313.167 102.087Z" fill="#B78876"/>
<path d="M357.185 240.945C357.185 240.945 341.59 191.354 341.259 189.743C340.96 188.288 346.919 152.6 347.67 143.364L326.598 144.151C326.598 144.151 326.597 144.208 326.596 144.305L317.639 144.802L325.661 246.226H335.358L334.397 212.576C340.376 228.649 348.945 245.028 348.945 245.028L357.185 240.945Z" fill="#B78876"/>
<path d="M334.792 224.636C334.801 224.328 334.675 213.362 334.675 213.362C334.554 214.018 330.957 203.84 331.044 203.221C331.089 202.901 334.792 224.636 334.792 224.636Z" fill="#A36957"/>
<path d="M330.633 198.403C330.611 198.403 330.59 198.621 330.571 199.018C330.55 199.414 330.546 199.989 330.584 200.7C330.598 201.055 330.635 201.443 330.681 201.859C330.734 202.274 330.79 202.719 330.886 203.18C331.062 204.106 331.334 205.108 331.679 206.135C332.384 208.186 333.16 209.981 333.712 211.283C333.974 211.877 334.198 212.387 334.387 212.817C334.553 213.176 334.654 213.371 334.675 213.363C334.696 213.354 334.634 213.144 334.504 212.77C334.373 212.395 334.176 211.858 333.923 211.198C333.426 209.874 332.683 208.066 331.985 206.032C331.643 205.015 331.367 204.03 331.178 203.122C331.076 202.669 331.01 202.233 330.946 201.825C330.89 201.416 330.84 201.034 330.812 200.683C330.746 199.983 330.715 199.412 330.698 199.018C330.677 198.622 330.655 198.403 330.633 198.403Z" fill="#A36957"/>
<path d="M325.479 246.725L325.475 245.813L335.408 245.38L335.435 249.141L334.822 249.182C332.095 249.342 320.947 249.803 319.123 249.255C317.087 248.644 325.479 246.725 325.479 246.725Z" fill="#455A64"/>
<path d="M335.573 248.914C335.573 248.918 335.514 248.925 335.403 248.933C335.257 248.943 335.096 248.953 334.915 248.964C334.427 248.987 333.827 249.015 333.119 249.048C331.602 249.108 329.505 249.163 327.189 249.174C324.872 249.183 322.775 249.147 321.258 249.1C320.549 249.073 319.95 249.05 319.461 249.032C319.28 249.021 319.12 249.013 318.973 249.004C318.862 248.997 318.803 248.991 318.804 248.987C318.804 248.983 318.863 248.981 318.974 248.98C319.121 248.981 319.282 248.983 319.463 248.985C319.952 248.993 320.552 249.003 321.26 249.015C322.777 249.04 324.874 249.063 327.189 249.053C329.504 249.043 331.6 249.001 333.117 248.963C333.825 248.944 334.426 248.929 334.913 248.917C335.095 248.913 335.255 248.91 335.402 248.908C335.514 248.908 335.573 248.91 335.573 248.914Z" fill="#263238"/>
<path d="M322.26 249.234C322.223 249.238 322.194 248.809 321.922 248.377C321.656 247.939 321.286 247.721 321.307 247.691C321.314 247.661 321.738 247.846 322.024 248.314C322.314 248.778 322.29 249.241 322.26 249.234Z" fill="#263238"/>
<path d="M325.171 247.742C325.143 247.76 325.003 247.59 324.858 247.363C324.713 247.136 324.619 246.938 324.646 246.92C324.674 246.902 324.814 247.072 324.96 247.299C325.104 247.526 325.199 247.725 325.171 247.742Z" fill="#263238"/>
<path d="M325.969 247.316C325.947 247.341 325.791 247.237 325.62 247.084C325.449 246.932 325.329 246.788 325.35 246.763C325.372 246.739 325.528 246.842 325.7 246.995C325.871 247.148 325.991 247.292 325.969 247.316Z" fill="#263238"/>
<path d="M326.472 246.38C326.472 246.413 326.242 246.443 325.956 246.448C325.671 246.452 325.44 246.428 325.439 246.396C325.438 246.362 325.669 246.332 325.955 246.328C326.24 246.324 326.471 246.347 326.472 246.38Z" fill="#263238"/>
<path d="M326.643 245.722C326.655 245.751 326.404 245.865 326.068 245.891C325.734 245.919 325.467 245.845 325.474 245.814C325.48 245.78 325.741 245.799 326.059 245.772C326.377 245.748 326.633 245.689 326.643 245.722Z" fill="#263238"/>
<path d="M324.833 246.88C324.834 246.894 324.59 246.925 324.198 246.879C324.002 246.856 323.77 246.81 323.521 246.732C323.397 246.689 323.268 246.656 323.134 246.574C323.071 246.532 323.001 246.473 322.976 246.377C322.949 246.282 323 246.174 323.071 246.122C323.678 245.805 324.286 246.145 324.513 246.458C324.637 246.617 324.695 246.773 324.722 246.881C324.748 246.99 324.746 247.052 324.739 247.052C324.716 247.061 324.695 246.802 324.448 246.511C324.325 246.369 324.141 246.23 323.904 246.16C323.679 246.095 323.36 246.078 323.147 246.215C323.046 246.29 323.086 246.408 323.198 246.475C323.303 246.542 323.438 246.583 323.555 246.626C323.796 246.708 324.02 246.761 324.21 246.794C324.591 246.861 324.833 246.861 324.833 246.88Z" fill="#263238"/>
<path d="M324.668 246.912C324.659 246.919 324.565 246.757 324.593 246.471C324.608 246.331 324.659 246.164 324.765 246.006C324.877 245.865 325.02 245.669 325.293 245.68C325.44 245.699 325.513 245.866 325.489 245.973C325.478 246.084 325.429 246.18 325.383 246.257C325.289 246.416 325.182 246.546 325.084 246.643C324.886 246.839 324.728 246.914 324.722 246.902C324.71 246.887 324.848 246.788 325.022 246.586C325.108 246.485 325.203 246.357 325.286 246.203C325.373 246.068 325.432 245.827 325.272 245.798C325.113 245.784 324.952 245.943 324.855 246.07C324.756 246.208 324.701 246.356 324.677 246.484C324.629 246.742 324.689 246.908 324.668 246.912Z" fill="#263238"/>
<path d="M335.361 246.208C335.359 246.23 335.078 246.182 334.632 246.236C334.19 246.287 333.575 246.471 333.041 246.899C332.508 247.329 332.196 247.89 332.051 248.311C331.901 248.736 331.888 249.021 331.865 249.018C331.858 249.018 331.854 248.947 331.864 248.818C331.874 248.691 331.904 248.505 331.97 248.285C332.098 247.845 332.41 247.254 332.966 246.806C333.522 246.359 334.167 246.182 334.623 246.152C334.853 246.135 335.04 246.146 335.166 246.164C335.294 246.181 335.362 246.2 335.361 246.208Z" fill="#263238"/>
<path d="M330.605 248.126C330.609 248.157 329.964 248.26 329.161 248.263C328.358 248.269 327.713 248.173 327.716 248.141C327.72 248.107 328.365 248.149 329.161 248.143C329.956 248.14 330.601 248.091 330.605 248.126Z" fill="#263238"/>
<path d="M332.541 248.104C332.565 248.129 332.488 248.241 332.423 248.39C332.356 248.538 332.322 248.67 332.288 248.668C332.256 248.668 332.237 248.512 332.313 248.341C332.39 248.169 332.519 248.081 332.541 248.104Z" fill="#263238"/>
<path d="M333.267 247.192C333.291 247.215 333.228 247.318 333.126 247.423C333.024 247.527 332.922 247.592 332.899 247.569C332.875 247.546 332.938 247.443 333.04 247.339C333.142 247.235 333.243 247.169 333.267 247.192Z" fill="#263238"/>
<path d="M334.31 246.773C334.303 246.806 334.172 246.805 334.027 246.857C333.88 246.906 333.777 246.987 333.751 246.964C333.725 246.946 333.807 246.805 333.988 246.744C334.168 246.681 334.32 246.742 334.31 246.773Z" fill="#263238"/>
<path d="M335.053 246.574C335.065 246.605 335.009 246.656 334.927 246.688C334.845 246.72 334.768 246.721 334.756 246.69C334.745 246.659 334.801 246.608 334.883 246.576C334.965 246.545 335.041 246.543 335.053 246.574Z" fill="#263238"/>
<path d="M348.75 245.848L348.373 245.017L357.257 240.549L358.821 243.969L358.279 244.257C355.857 245.521 345.876 250.513 343.987 250.762C341.881 251.039 348.75 245.848 348.75 245.848Z" fill="#455A64"/>
<path d="M358.854 243.705C358.856 243.708 358.806 243.738 358.707 243.792C358.578 243.86 358.436 243.935 358.275 244.02C357.839 244.241 357.303 244.513 356.671 244.834C355.312 245.511 353.422 246.421 351.313 247.38C349.203 248.34 347.275 249.166 345.872 249.745C345.215 250.011 344.658 250.237 344.205 250.42C344.036 250.485 343.886 250.543 343.749 250.596C343.644 250.635 343.588 250.653 343.586 250.649C343.585 250.645 343.637 250.619 343.74 250.574C343.874 250.515 344.021 250.45 344.187 250.377C344.636 250.184 345.188 249.948 345.839 249.668C347.233 249.069 349.155 248.23 351.264 247.271C353.371 246.313 355.266 245.415 356.634 244.758C357.273 244.451 357.814 244.191 358.255 243.979C358.419 243.902 358.564 243.833 358.697 243.771C358.798 243.724 358.852 243.701 358.854 243.705Z" fill="#263238"/>
<path d="M346.841 249.456C346.81 249.476 346.607 249.096 346.181 248.813C345.761 248.523 345.333 248.476 345.339 248.439C345.334 248.409 345.796 248.404 346.248 248.714C346.704 249.019 346.871 249.451 346.841 249.456Z" fill="#263238"/>
<path d="M348.886 246.902C348.868 246.929 348.671 246.832 348.446 246.685C348.22 246.537 348.053 246.395 348.071 246.368C348.089 246.34 348.286 246.438 348.511 246.585C348.736 246.732 348.904 246.874 348.886 246.902Z" fill="#263238"/>
<path d="M349.44 246.186C349.43 246.217 349.245 246.187 349.027 246.118C348.809 246.049 348.64 245.967 348.65 245.935C348.66 245.904 348.845 245.934 349.063 246.003C349.281 246.072 349.45 246.154 349.44 246.186Z" fill="#263238"/>
<path d="M349.516 245.126C349.53 245.156 349.332 245.278 349.074 245.399C348.815 245.52 348.594 245.593 348.581 245.563C348.567 245.533 348.765 245.411 349.023 245.291C349.281 245.169 349.502 245.096 349.516 245.126Z" fill="#263238"/>
<path d="M349.402 244.454C349.424 244.476 349.242 244.684 348.947 244.844C348.653 245.007 348.38 245.049 348.373 245.018C348.364 244.984 348.61 244.894 348.889 244.739C349.17 244.587 349.379 244.428 349.402 244.454Z" fill="#263238"/>
<path d="M348.224 246.254C348.231 246.266 348.021 246.394 347.644 246.513C347.457 246.572 347.227 246.626 346.967 246.657C346.836 246.667 346.705 246.691 346.549 246.671C346.474 246.659 346.387 246.634 346.324 246.556C346.261 246.481 346.263 246.362 346.307 246.285C346.73 245.748 347.425 245.808 347.76 246.001C347.939 246.095 348.055 246.214 348.123 246.301C348.191 246.39 348.215 246.447 348.209 246.451C348.192 246.468 348.067 246.241 347.722 246.077C347.552 245.996 347.327 245.945 347.082 245.979C346.851 246.011 346.553 246.127 346.414 246.339C346.353 246.449 346.438 246.541 346.567 246.555C346.691 246.573 346.83 246.555 346.955 246.547C347.209 246.523 347.434 246.48 347.621 246.431C347.995 246.336 348.217 246.236 348.224 246.254Z" fill="#263238"/>
<path d="M348.088 246.351C348.083 246.361 347.93 246.252 347.839 245.979C347.795 245.845 347.773 245.672 347.805 245.484C347.849 245.309 347.9 245.073 348.153 244.97C348.295 244.927 348.626 245.212 348.649 245.32C348.684 245.426 348.481 245.371 348.471 245.46C348.45 245.644 348.406 245.805 348.356 245.935C348.255 246.195 348.143 246.328 348.131 246.32C348.115 246.31 348.2 246.163 348.276 245.908C348.314 245.78 348.347 245.625 348.361 245.45C348.385 245.292 348.339 245.047 348.183 245.087C348.032 245.138 347.949 245.35 347.913 245.506C347.879 245.672 347.889 245.83 347.92 245.957C347.983 246.212 348.105 246.338 348.088 246.351Z" fill="#263238"/>
<path d="M357.554 241.322C357.562 241.344 357.285 241.414 356.9 241.647C356.518 241.875 356.032 242.295 355.72 242.904C355.409 243.514 355.355 244.154 355.395 244.598C355.432 245.047 355.537 245.313 355.515 245.319C355.508 245.322 355.476 245.259 355.433 245.138C355.389 245.017 355.341 244.836 355.311 244.607C355.247 244.154 355.29 243.486 355.614 242.85C355.939 242.214 356.454 241.789 356.858 241.574C357.061 241.464 357.236 241.397 357.359 241.361C357.482 241.326 357.552 241.315 357.554 241.322Z" fill="#263238"/>
<path d="M353.999 245.023C354.016 245.049 353.47 245.407 352.739 245.74C352.009 246.074 351.381 246.251 351.371 246.221C351.36 246.189 351.966 245.962 352.69 245.631C353.414 245.302 353.982 244.992 353.999 245.023Z" fill="#263238"/>
<path d="M355.757 244.21C355.789 244.222 355.766 244.356 355.767 244.519C355.766 244.681 355.789 244.815 355.757 244.828C355.728 244.841 355.646 244.707 355.647 244.519C355.646 244.331 355.728 244.197 355.757 244.21Z" fill="#263238"/>
<path d="M356.047 243.079C356.078 243.09 356.062 243.21 356.012 243.347C355.961 243.484 355.895 243.586 355.865 243.574C355.833 243.563 355.849 243.443 355.9 243.306C355.95 243.17 356.016 243.068 356.047 243.079Z" fill="#263238"/>
<path d="M356.827 242.269C356.834 242.303 356.714 242.356 356.603 242.462C356.489 242.566 356.428 242.682 356.395 242.673C356.364 242.667 356.381 242.505 356.521 242.374C356.66 242.244 356.823 242.237 356.827 242.269Z" fill="#263238"/>
<path d="M357.423 241.783C357.447 241.806 357.416 241.876 357.355 241.939C357.293 242.001 357.224 242.034 357.2 242.01C357.177 241.987 357.208 241.918 357.269 241.855C357.33 241.792 357.399 241.76 357.423 241.783Z" fill="#263238"/>
<path d="M346.303 126.577L344.649 106.373L353.144 106.524C353.144 106.524 353.538 103.546 352.286 97.0106C351.518 93.0033 348.853 90.5457 345.863 89.0854L345.864 89.0317L345.605 88.9637C341.803 87.182 337.823 86.9307 337.823 86.9307L327.394 87.0512C327.394 87.0512 319.427 86.0562 315.018 91.7422C313.319 93.9327 308.063 108.923 308.063 108.923L320.581 114.958L319.389 106.646C319.389 106.646 319.626 112.673 320.394 114.583C320.822 115.647 322.061 118.95 322.061 118.95L321.9 128.92L346.303 126.577Z" fill="#86179E"/>
<path d="M340.549 103.44L339.001 110.042H353.605L352.644 98.9727L340.549 103.44Z" fill="#86179E"/>
<path d="M353.604 110.043C353.607 109.999 352.868 109.922 351.672 109.851C350.475 109.781 348.819 109.722 346.988 109.73C345.158 109.739 343.501 109.819 342.306 109.914C341.11 110.008 340.375 110.11 340.378 110.152C340.381 110.198 341.122 110.177 342.318 110.141C343.514 110.104 345.165 110.061 346.991 110.052C348.815 110.044 350.467 110.067 351.664 110.079C352.86 110.091 353.602 110.088 353.604 110.043Z" fill="#263238"/>
<path d="M339.919 98.9189C339.875 98.9206 339.859 99.5625 339.871 100.598C339.882 101.635 339.919 103.064 339.98 104.643C340.041 106.223 340.115 107.652 340.185 108.686C340.253 109.719 340.319 110.358 340.363 110.356C340.408 110.354 340.423 109.713 340.412 108.677C340.401 107.641 340.363 106.21 340.302 104.631C340.241 103.052 340.168 101.623 340.098 100.589C340.029 99.5563 339.964 98.9173 339.919 98.9189Z" fill="#263238"/>
<g opacity="0.3">
<path d="M326.631 104.638C326.631 104.638 329.877 128.731 339.001 128.093C339.001 128.093 343.109 128.045 344.43 125.311V124.235L326.631 104.638Z" fill="black"/>
</g>
<g opacity="0.3">
<path d="M339.92 100.339L338.173 112.15L339.304 114.223L341.166 110.17L340.378 110.152L339.92 100.339Z" fill="black"/>
</g>
<path d="M322.062 118.951C322.043 118.958 321.956 118.756 321.816 118.386C321.674 118.017 321.486 117.477 321.267 116.805C320.832 115.461 320.293 113.578 319.871 111.459C319.452 109.338 319.246 107.388 319.179 105.974C319.145 105.267 319.134 104.694 319.145 104.299C319.153 103.903 319.167 103.685 319.187 103.685C319.234 103.684 319.266 104.557 319.387 105.96C319.506 107.363 319.743 109.295 320.16 111.402C320.579 113.508 321.083 115.389 321.467 116.745C321.646 117.374 321.799 117.91 321.925 118.351C322.031 118.731 322.081 118.944 322.062 118.951Z" fill="#263238"/>
<path d="M325.752 125.875C325.674 125.899 325.448 125.378 325.247 124.714C325.047 124.049 324.947 123.491 325.025 123.468C325.103 123.444 325.328 123.964 325.529 124.628C325.73 125.293 325.83 125.851 325.752 125.875Z" fill="#263238"/>
<path d="M327.013 125.782C326.937 125.801 326.691 125.021 326.679 124.021C326.662 123.02 326.885 122.233 326.961 122.25C327.044 122.266 326.956 123.051 326.973 124.016C326.984 124.982 327.096 125.765 327.013 125.782Z" fill="#263238"/>
<path d="M320.835 115.235C320.799 115.308 317.886 113.924 314.33 112.145C310.772 110.365 307.918 108.864 307.955 108.791C307.991 108.718 310.904 110.102 314.461 111.881C318.017 113.661 320.872 115.162 320.835 115.235Z" fill="#263238"/>
<path d="M325.969 89.0048C326.034 86.1415 326.05 83.1258 326.05 83.1258C326.05 83.1258 322.382 82.4183 321.742 77.5858C321.133 72.9774 322.838 62.164 322.838 62.164C328.196 60.136 333.765 61.9744 337.436 66.3213L336.525 89.5691C336.419 92.2678 334.017 94.3264 331.132 94.1911C328.217 94.0541 325.907 91.733 325.969 89.0048Z" fill="#B78876"/>
<path d="M322.56 70.8063C322.54 71.1317 322.799 71.417 323.138 71.4442C323.477 71.4713 323.768 71.2297 323.788 70.9042C323.807 70.5788 323.548 70.2929 323.21 70.2658C322.871 70.2386 322.579 70.4808 322.56 70.8063Z" fill="#263238"/>
<path d="M322.33 69.9954C322.405 70.078 322.881 69.7441 323.544 69.7628C324.207 69.7718 324.685 70.1261 324.759 70.0469C324.795 70.0118 324.721 69.8646 324.513 69.7045C324.308 69.5454 323.956 69.3864 323.543 69.3773C323.129 69.3688 322.778 69.512 322.574 69.6631C322.366 69.8148 322.293 69.9586 322.33 69.9954Z" fill="#263238"/>
<path d="M329.29 71.2257C329.27 71.5512 329.529 71.837 329.868 71.8642C330.207 71.8913 330.498 71.6497 330.518 71.3242C330.538 70.9988 330.279 70.7129 329.94 70.6858C329.601 70.658 329.31 70.9003 329.29 71.2257Z" fill="#263238"/>
<path d="M329.245 70.4153C329.319 70.4979 329.796 70.164 330.459 70.1827C331.121 70.1923 331.599 70.5466 331.673 70.4668C331.71 70.4317 331.636 70.2846 331.427 70.1244C331.223 69.9653 330.871 69.8063 330.457 69.7972C330.044 69.7887 329.692 69.9319 329.489 70.0831C329.281 70.2348 329.209 70.3785 329.245 70.4153Z" fill="#263238"/>
<path d="M326.71 75.2783C326.714 75.2403 326.304 75.1588 325.638 75.0558C325.469 75.0337 325.31 74.9964 325.284 74.8798C325.247 74.7564 325.323 74.5753 325.41 74.38C325.58 73.9736 325.758 73.548 325.944 73.1014C326.687 71.2806 327.23 69.7818 327.157 69.7524C327.083 69.723 326.421 71.1748 325.678 72.9956C325.499 73.4444 325.328 73.8729 325.165 74.2821C325.096 74.4734 324.98 74.689 325.06 74.9454C325.102 75.0734 325.224 75.1684 325.332 75.2007C325.44 75.2369 325.535 75.2409 325.618 75.2483C326.29 75.3026 326.707 75.3162 326.71 75.2783Z" fill="#263238"/>
<path d="M326.05 83.1254C326.05 83.1254 329.278 83.4174 332.531 81.5723C332.531 81.5723 330.885 84.8381 326.085 84.263L326.05 83.1254Z" fill="#A36957"/>
<path d="M331.369 68.4997C331.232 68.7074 330.728 68.6151 330.163 68.5133C329.6 68.3995 329.097 68.2993 329.046 68.0559C328.99 67.8228 329.574 67.4996 330.328 67.6445C331.083 67.7882 331.507 68.3033 331.369 68.4997Z" fill="#263238"/>
<path d="M324.773 67.5245C324.721 67.7668 324.181 67.855 323.558 67.8867C322.935 67.9122 322.389 67.8737 322.316 67.6377C322.241 67.409 322.768 67.0366 323.518 67.0038C324.267 66.9676 324.826 67.2896 324.773 67.5245Z" fill="#263238"/>
<path d="M326.721 76.8685C326.582 76.8295 326.424 76.9093 326.354 77.0366C326.271 77.1878 326.309 77.396 326.441 77.5075C326.573 77.619 326.784 77.6219 326.92 77.5138C327.055 77.4062 327.099 77.1991 327.02 77.0457C326.941 76.8923 326.747 76.8085 326.58 76.8561" fill="#A36957"/>
<path d="M326.877 76.9337C326.907 76.9071 326.77 76.7441 326.481 76.8075C326.347 76.8369 326.172 76.9575 326.119 77.1635C326.066 77.3571 326.114 77.6078 326.318 77.7652C326.53 77.9146 326.786 77.884 326.954 77.7691C327.135 77.6503 327.186 77.4329 327.158 77.2971C327.099 76.9988 326.879 76.9513 326.873 76.9926C326.848 77.0299 326.95 77.1335 326.93 77.3101C326.92 77.3967 326.879 77.4771 326.795 77.5178C326.713 77.5625 326.583 77.5625 326.509 77.5054C326.431 77.4499 326.391 77.3265 326.407 77.2314C326.419 77.1363 326.482 77.0656 326.559 77.022C326.716 76.9326 326.856 76.9745 326.877 76.9337Z" fill="#263238"/>
<path d="M335.214 71.9998C334.642 73.3265 333.247 74.3487 333.44 75.7807C333.565 76.7049 334.158 77.5669 334.042 78.4929C333.897 79.6555 332.691 80.4615 332.52 81.6206C332.311 83.0424 333.692 84.1473 334.244 85.474C335.047 87.4057 334.02 89.5786 333.995 91.6711C333.959 94.8764 336.681 97.8705 339.871 98.1337C341.162 98.2401 342.616 97.8501 343.285 96.7402C343.837 95.8244 343.726 94.6607 344.058 93.6436C344.551 92.129 345.993 91.0202 346.297 89.4563C346.851 86.6054 343.41 84.2463 343.636 81.3507C343.733 80.1134 344.496 79.034 344.82 77.8364C345.245 76.2674 344.855 74.5004 343.81 73.2563C342.961 72.2448 341.728 71.5798 341.005 70.475C340.185 69.2218 340.157 67.6331 339.848 66.1671C339.094 62.5951 336.414 59.4923 332.993 58.229C329.572 56.9657 325.522 57.5838 322.632 59.8098C322.632 59.8098 321.809 63.5403 325.634 64.1641C329.459 64.7878 331.231 64.0678 331.663 65.6028C331.663 65.6028 331.227 67.3954 332.808 69.1081C334.39 70.8219 335.876 70.4636 335.214 71.9998Z" fill="#263238"/>
<path d="M341.318 97.8731C341.316 97.8833 341.197 97.8703 340.969 97.8369C340.741 97.8012 340.408 97.7259 339.996 97.5743C339.179 97.2754 338.022 96.6245 337.036 95.381C336.547 94.7646 336.088 94.0175 335.778 93.1391C335.462 92.2657 335.281 91.2758 335.265 90.2332C335.24 89.1901 335.388 88.096 335.672 87.0014C335.814 86.4535 335.999 85.9067 336.213 85.3639C336.425 84.8189 336.685 84.2936 336.834 83.7378C336.995 83.1837 336.973 82.6177 336.828 82.0777C336.681 81.5378 336.43 81.0301 336.185 80.528C335.94 80.0266 335.689 79.5262 335.527 78.9942C335.362 78.4667 335.301 77.8978 335.408 77.3675C335.634 76.3011 336.28 75.5121 336.662 74.7022C337.066 73.9002 337.192 73.0523 337.174 72.2916C337.105 70.7498 336.449 69.6099 335.913 68.9528C335.354 68.2951 334.931 68.0443 334.952 68.0166C334.952 68.0166 335.401 68.2289 336 68.8781C336.574 69.5267 337.283 70.6825 337.382 72.2825C337.416 73.071 337.295 73.9641 336.882 74.8092C336.492 75.6485 335.868 76.4432 335.675 77.419C335.477 78.4021 335.941 79.4147 336.445 80.4001C336.691 80.9027 336.953 81.4223 337.112 82.0002C337.27 82.5741 337.293 83.2228 337.119 83.8137C336.959 84.4074 336.693 84.9394 336.487 85.4715C336.275 86.0035 336.093 86.5384 335.953 87.0744C335.67 88.1453 335.521 89.2122 335.538 90.2281C335.544 92.2686 336.244 94.052 337.202 95.2508C338.141 96.4779 339.251 97.1401 340.04 97.4667C340.838 97.791 341.324 97.8397 341.318 97.8731Z" fill="#455A64"/>
<path d="M340.755 69.3121C340.756 69.3308 340.458 69.3845 339.912 69.4377C339.368 69.4824 338.565 69.5458 337.584 69.3766C336.625 69.2011 335.413 68.7302 334.646 67.592C334.269 67.0209 334.119 66.3298 333.874 65.6919C333.643 65.0467 333.197 64.4881 332.586 64.1009C331.349 63.3159 329.894 63.2197 328.621 63.0646C327.342 62.9202 326.141 62.6486 325.326 62.0373C324.506 61.4526 324.085 60.6942 323.977 60.1474C323.916 59.8735 323.921 59.6539 323.933 59.509C323.953 59.3635 323.969 59.2893 323.979 59.291C324.016 59.2916 323.94 59.6023 324.089 60.1191C324.225 60.6308 324.65 61.3303 325.445 61.8663C326.229 62.4227 327.379 62.6655 328.653 62.7952C329.915 62.9378 331.422 63.0165 332.746 63.8536C333.4 64.2622 333.906 64.9029 334.143 65.5884C334.395 66.2619 334.535 66.9247 334.873 67.4454C335.562 68.4987 336.703 68.9804 337.623 69.1728C338.567 69.3636 339.363 69.3342 339.905 69.3245C340.45 69.3053 340.752 69.2906 340.755 69.3121Z" fill="#455A64"/>
<path d="M339.351 64.702C339.354 64.7162 339.123 64.7886 338.689 64.7994C338.258 64.8113 337.613 64.7349 336.904 64.3969C336.55 64.2288 336.187 63.9877 335.853 63.6657C335.514 63.3453 335.237 62.931 334.977 62.4941C334.467 61.6332 333.976 60.5714 332.919 60.1327C331.883 59.6878 330.742 59.7869 329.751 59.8542C328.751 59.9527 327.813 59.9821 327.048 59.8316C326.278 59.6974 325.7 59.3782 325.379 59.0828C325.218 58.9367 325.108 58.806 325.047 58.7092C324.984 58.6141 324.955 58.5621 324.963 58.5558C324.987 58.5377 325.122 58.7375 325.452 58.9939C325.781 59.2492 326.338 59.5226 327.082 59.6261C327.827 59.745 328.723 59.698 329.728 59.5837C330.724 59.505 331.899 59.3794 333.037 59.8633C333.601 60.1027 334.061 60.5266 334.387 60.9857C334.72 61.4447 334.959 61.9241 335.211 62.3571C335.46 62.7906 335.716 63.1863 336.025 63.4919C336.331 63.8015 336.667 64.0392 336.997 64.2107C337.66 64.5554 338.274 64.6618 338.691 64.6845C339.112 64.7094 339.348 64.6766 339.351 64.702Z" fill="#455A64"/>
<path d="M343.004 96.6512C342.975 96.6382 343.155 96.2737 343.364 95.577C343.571 94.8825 343.777 93.8388 343.741 92.5432C343.697 91.2567 343.388 89.7002 342.535 88.2212C342.122 87.4798 341.493 86.8198 340.982 86.0054C340.727 85.599 340.508 85.1433 340.412 84.639C340.318 84.1342 340.376 83.5982 340.537 83.1114C340.854 82.1345 341.422 81.3115 341.544 80.4133C341.696 79.5122 341.241 78.6904 340.811 77.9591C340.593 77.5867 340.375 77.2188 340.205 76.8339C340.036 76.449 339.928 76.0437 339.886 75.6521C339.8 74.8653 339.892 74.1426 339.95 73.4939C340.113 72.2012 339.993 71.1388 339.682 70.4862C339.381 69.8257 338.985 69.6276 339.014 69.6004C339.017 69.5964 339.04 69.6072 339.083 69.6332C339.124 69.6604 339.191 69.6961 339.263 69.7623C339.414 69.8851 339.615 70.103 339.785 70.4364C340.143 71.0969 340.296 72.208 340.157 73.512C340.111 74.1635 340.035 74.8772 340.127 75.6226C340.203 76.3749 340.59 77.0846 341.044 77.821C341.264 78.1934 341.496 78.5823 341.659 79.0237C341.826 79.4613 341.902 79.9616 341.829 80.4529C341.692 81.4428 341.109 82.2805 340.817 83.2008C340.665 83.6604 340.616 84.1325 340.699 84.5864C340.785 85.0403 340.984 85.4631 341.226 85.8537C341.711 86.6359 342.342 87.3094 342.769 88.086C343.637 89.6227 343.929 91.2239 343.948 92.5387C343.958 93.8626 343.715 94.9193 343.472 95.6121C343.345 95.9579 343.239 96.2228 343.147 96.3937C343.063 96.5669 343.013 96.6558 343.004 96.6512Z" fill="#455A64"/>
<path d="M319.976 202.112C319.976 202.112 316.169 165.977 315.95 152.625C315.731 139.273 321.946 126.099 321.946 126.099L346.302 125.067C346.302 125.067 351.117 138.615 351.202 144.306C351.37 155.365 348.268 166.285 348.625 175.058L349.439 202.112" fill="#263238"/>
<path d="M350.255 157.69C350.26 157.699 350.122 157.803 349.858 157.992C349.79 158.04 349.716 158.092 349.635 158.149C349.559 158.213 349.485 158.295 349.4 158.377C349.229 158.541 349.029 158.728 348.857 158.985C348.07 159.95 347.497 161.672 346.951 163.822C346.651 164.889 346.346 166.087 345.718 167.259C345.55 167.545 345.399 167.849 345.177 168.115C345.072 168.251 344.975 168.397 344.859 168.527L344.484 168.903C343.976 169.403 343.331 169.781 342.652 170.079C341.289 170.678 339.75 170.962 338.344 171.667C336.929 172.357 335.868 173.695 335.218 175.235C334.532 176.768 334.116 178.379 333.544 179.882C332.982 181.373 332.216 182.826 331.002 183.743C329.796 184.693 328.306 184.91 327.016 184.993C325.704 185.07 324.49 185.032 323.401 185.197C322.316 185.348 321.355 185.692 320.675 186.227C319.993 186.764 319.595 187.437 319.408 188.013C319.214 188.596 319.249 189.088 319.313 189.401C319.376 189.719 319.465 189.871 319.446 189.879C319.446 189.879 319.339 189.736 319.256 189.415C319.171 189.099 319.115 188.589 319.298 187.98C319.476 187.377 319.871 186.672 320.572 186.099C321.275 185.525 322.263 185.159 323.37 184.991C324.479 184.81 325.707 184.836 327 184.749C328.277 184.657 329.704 184.432 330.837 183.527C331.985 182.653 332.723 181.256 333.275 179.78C333.837 178.294 334.251 176.682 334.95 175.114C335.606 173.547 336.731 172.125 338.214 171.411C339.676 170.684 341.216 170.409 342.545 169.83C343.208 169.543 343.822 169.187 344.308 168.713L344.668 168.358C344.78 168.234 344.874 168.094 344.976 167.965C345.19 167.712 345.338 167.419 345.504 167.143C346.124 166.011 346.439 164.827 346.751 163.766C347.32 161.628 347.935 159.878 348.767 158.914C348.95 158.658 349.16 158.473 349.341 158.312C349.431 158.232 349.51 158.153 349.59 158.091C349.675 158.038 349.752 157.988 349.824 157.943C350.103 157.768 350.251 157.681 350.255 157.69Z" fill="#FAFAFA"/>
<path d="M350.405 140.968C350.416 140.967 350.426 141.133 350.437 141.452C350.442 141.77 350.404 142.242 350.268 142.834C349.985 144.013 349.126 145.63 347.517 147.094C346.721 147.829 345.761 148.54 344.664 149.18C343.573 149.829 342.369 150.445 341.135 151.143C339.906 151.843 338.639 152.634 337.525 153.685C336.397 154.723 335.551 156.087 334.79 157.532C334.022 158.975 333.341 160.443 332.419 161.714C331.962 162.349 331.445 162.929 330.873 163.426C330.298 163.919 329.671 164.319 329.035 164.651C327.757 165.315 326.456 165.726 325.25 166.104C324.041 166.478 322.914 166.809 321.929 167.223C320.941 167.63 320.087 168.092 319.395 168.581C318.704 169.071 318.178 169.585 317.805 170.049C317.052 170.983 316.894 171.66 316.851 171.637C316.841 171.634 316.895 171.476 317.008 171.178C317.138 170.889 317.341 170.459 317.715 169.979C318.08 169.495 318.605 168.959 319.299 168.448C319.992 167.937 320.853 167.456 321.847 167.031C322.84 166.6 323.974 166.255 325.176 165.871C326.376 165.484 327.662 165.067 328.908 164.412C329.528 164.083 330.135 163.691 330.689 163.213C331.24 162.73 331.738 162.168 332.184 161.546C333.081 160.302 333.756 158.845 334.529 157.394C335.292 155.942 336.163 154.539 337.325 153.475C338.47 152.401 339.76 151.604 341 150.907C342.245 150.212 343.45 149.604 344.538 148.969C345.631 148.344 346.581 147.656 347.374 146.94C348.976 145.518 349.843 143.953 350.156 142.805C350.461 141.646 350.36 140.964 350.405 140.968Z" fill="#FAFAFA"/>
<path d="M316.073 154.539C316.069 154.541 316.052 154.504 316.024 154.429C316 154.354 315.948 154.244 315.914 154.092C315.845 153.79 315.802 153.312 315.971 152.736C316.285 151.583 317.536 150.149 319.551 149.431C320.554 149.086 321.691 148.878 322.876 148.567C324.048 148.251 325.324 147.808 326.278 146.828C326.751 146.344 327.151 145.768 327.484 145.134C327.808 144.495 328.076 143.809 328.328 143.101C328.835 141.689 329.26 140.156 330.121 138.761C330.975 137.356 332.367 136.379 333.808 135.89C335.245 135.362 336.695 135.127 338.04 134.817C339.389 134.523 340.649 134.142 341.72 133.562C342.774 132.962 343.615 132.164 344.21 131.317C345.429 129.62 345.749 127.881 345.792 126.732C345.819 125.564 345.633 124.929 345.672 124.923C345.672 124.923 345.897 125.548 345.906 126.734C345.897 127.901 345.607 129.681 344.379 131.438C343.78 132.313 342.925 133.146 341.839 133.776C340.742 134.383 339.455 134.779 338.101 135.081C336.749 135.401 335.309 135.641 333.91 136.161C332.502 136.646 331.194 137.57 330.371 138.918C329.54 140.261 329.113 141.778 328.6 143.198C328.344 143.912 328.07 144.609 327.734 145.265C327.388 145.916 326.968 146.516 326.469 147.021C325.457 148.049 324.123 148.495 322.939 148.804C321.737 149.108 320.606 149.303 319.617 149.629C317.657 150.299 316.413 151.673 316.081 152.769C315.903 153.32 315.925 153.781 315.973 154.081C316.036 154.379 316.086 154.534 316.073 154.539Z" fill="#FAFAFA"/>
<path d="M348.311 185.093C348.321 185.092 348.334 185.213 348.35 185.448C348.363 185.682 348.345 186.032 348.246 186.47C348.046 187.341 347.373 188.535 346.109 189.528C345.486 190.031 344.733 190.492 343.867 190.861C343.004 191.231 342.05 191.524 341.053 191.836C340.057 192.147 339.012 192.472 337.996 192.953C336.972 193.423 336.027 194.109 335.213 194.985C334.388 195.85 333.677 196.795 332.887 197.629C332.102 198.468 331.208 199.16 330.282 199.67C328.421 200.699 326.492 201.052 324.905 201.07C323.306 201.087 322.038 200.751 321.205 200.454C320.785 200.307 320.473 200.161 320.266 200.051C320.057 199.947 319.95 199.887 319.954 199.878C319.959 199.869 320.075 199.911 320.29 199.997C320.503 200.088 320.82 200.217 321.241 200.345C322.075 200.606 323.332 200.905 324.901 200.861C326.458 200.817 328.342 200.448 330.148 199.432C331.049 198.926 331.909 198.255 332.676 197.43C333.449 196.609 334.158 195.664 334.999 194.781C335.827 193.888 336.823 193.166 337.871 192.692C338.914 192.203 339.973 191.88 340.972 191.576C341.972 191.272 342.921 190.989 343.772 190.636C344.621 190.285 345.364 189.845 345.979 189.364C347.23 188.415 347.905 187.28 348.134 186.441C348.358 185.593 348.27 185.092 348.311 185.093Z" fill="#FAFAFA"/>
<path d="M345.534 110.067L340.824 110.178C340.515 111.767 339.759 112.853 339.759 112.853C335.821 106.009 332.768 96.8401 332.01 93.1549C332.12 92.787 332.251 92.3794 332.415 91.9244C332.603 91.3991 332.441 90.4041 332.352 89.8522C332.22 89.0315 331.991 87.9279 331.922 87.4168C331.712 85.8597 331.462 85.6152 330.919 85.7912C330.182 86.0306 331.222 90.1641 330.617 90.2541C330.292 90.3022 329.894 88.8861 329.779 87.7241C329.664 86.5621 329.139 82.9878 328.755 82.7495C328.193 82.4003 327.703 82.9527 327.844 84.1096C327.988 85.2807 328.169 88.7735 327.556 88.8204C326.952 88.8668 326.445 82.9414 326.445 82.9414C326.445 82.9414 326.54 81.652 325.83 81.6832C324.549 81.7386 325.55 87.9862 325.66 88.5782C325.737 88.9897 325.071 89.0655 325.013 88.6184C324.952 88.1582 324.643 82.6924 323.339 82.7359C322.338 82.7699 324.114 87.8843 323.552 89.07C322.99 90.2552 322.6 85.0435 321.644 85.1154C321.289 85.1426 321.026 85.2122 321.679 88.1616C322.03 89.747 323.063 92.6613 323.965 95.0747C325.479 103.253 332.126 129.417 342.547 124.628C348.378 121.948 350.744 110.07 350.744 110.07L345.534 110.067Z" fill="#B78876"/>
<path d="M325.438 88.9774C325.438 88.9774 325.485 88.9859 325.573 88.9587C325.653 88.9344 325.811 88.8347 325.786 88.6316C325.772 88.2806 325.718 87.7684 325.636 87.1067C325.576 86.4406 325.377 85.6414 325.376 84.6956C325.368 84.2218 325.381 83.7124 325.408 83.1725C325.425 82.9025 325.43 82.6223 325.49 82.3574C325.534 82.101 325.706 81.8079 325.903 81.8429L325.925 81.8469L325.934 81.8463C326.135 81.8373 326.293 81.9941 326.357 82.234C326.428 82.4633 326.445 82.7338 326.431 82.9919L326.431 83.0027L326.431 83.01C326.563 84.4579 326.706 86.0432 327.035 87.7356C327.081 87.9473 327.128 88.1601 327.194 88.3746C327.226 88.4816 327.264 88.5897 327.311 88.6989C327.342 88.7549 327.361 88.8081 327.407 88.8664C327.448 88.9157 327.499 89.0017 327.644 89.0147C327.878 88.9972 327.946 88.8195 327.999 88.7176C328.05 88.6004 328.082 88.4844 328.105 88.3695C328.154 88.1391 328.178 87.9093 328.196 87.6784C328.258 86.7553 328.226 85.8134 328.158 84.8473C328.136 84.3588 328.016 83.8721 328.099 83.4294C328.138 83.2115 328.229 82.9919 328.377 82.9014C328.45 82.8572 328.531 82.8482 328.621 82.8708C328.665 82.8838 328.71 82.9019 328.755 82.9291C328.792 82.9648 328.784 82.9489 328.817 83.0123C329.007 83.4176 329.103 83.9451 329.21 84.4352C329.31 84.9361 329.397 85.4467 329.477 85.9629C329.556 86.4791 329.629 87.0015 329.691 87.5279C329.741 88.0537 329.817 88.6061 329.951 89.1376C330.019 89.4053 330.094 89.6724 330.206 89.9373C330.264 90.0703 330.323 90.2016 330.439 90.3375C330.481 90.3952 330.613 90.5033 330.778 90.4609C330.937 90.4077 330.983 90.2809 331.009 90.2067C331.1 89.8813 331.073 89.6107 331.068 89.326C331.057 89.0453 331.033 88.7674 331.01 88.4901C330.97 88.0135 330.924 87.542 330.908 87.0773C330.901 86.8458 330.9 86.6143 330.925 86.3964C330.939 86.29 330.957 86.1802 330.994 86.1015C331.011 86.0613 331.032 86.0319 331.048 86.0172C331.057 86.0081 331.063 86.0121 331.07 86.0031L331.144 85.9821C331.518 85.827 331.643 86.3494 331.743 86.7705C331.83 87.2098 331.885 87.6631 331.973 88.1097C332.122 89.0012 332.312 89.8869 332.411 90.7388C332.452 91.1604 332.482 91.5991 332.361 91.9568C332.227 92.366 332.095 92.7707 331.965 93.1709L331.953 93.2071L331.961 93.245C332.65 96.2884 333.605 99.0114 334.49 101.429C335.385 103.844 336.28 105.931 337.07 107.638C337.858 109.347 338.564 110.663 339.052 111.561C339.3 111.986 339.495 112.323 339.641 112.573C339.777 112.801 339.852 112.917 339.859 112.913C339.866 112.908 339.807 112.784 339.685 112.548C339.551 112.293 339.37 111.948 339.14 111.514C338.681 110.603 338.002 109.276 337.241 107.561C336.476 105.847 335.606 103.756 334.731 101.341C333.866 98.926 332.928 96.1956 332.258 93.1839L332.255 93.258C332.385 92.863 332.517 92.4639 332.651 92.0604C332.803 91.5985 332.758 91.1474 332.72 90.7059C332.619 89.8207 332.434 88.9604 332.287 88.065C332.2 87.6224 332.146 87.1679 332.055 86.7038C332.001 86.4723 331.952 86.2391 331.824 86.0031C331.763 85.8887 331.668 85.7585 331.512 85.6884C331.355 85.6199 331.193 85.6391 331.066 85.6702L330.971 85.6974C330.929 85.7166 330.876 85.7393 330.843 85.7704C330.771 85.8332 330.729 85.9051 330.7 85.9719C330.641 86.1078 330.624 86.2328 330.606 86.3585C330.578 86.607 330.579 86.8487 330.586 87.0886C330.603 87.5686 330.649 88.0435 330.689 88.5184C330.712 88.7946 330.736 89.0696 330.747 89.3407C330.757 89.6051 330.767 89.8971 330.706 90.1015C330.691 90.1609 330.664 90.1496 330.696 90.1784L330.697 90.1813C330.694 90.162 330.702 90.2101 330.7 90.2022L330.699 90.1965C330.698 90.1892 330.699 90.1824 330.701 90.1767C330.704 90.1716 330.716 90.1518 330.709 90.1507C330.705 90.149 330.691 90.1416 330.675 90.1196C330.613 90.0477 330.551 89.93 330.502 89.8128C330.401 89.5756 330.327 89.3181 330.262 89.0617C330.132 88.5427 330.059 88.0276 330.007 87.4928C329.944 86.9601 329.87 86.4355 329.789 85.9159C329.707 85.3963 329.618 84.8824 329.516 84.3752C329.399 83.8647 329.324 83.374 329.086 82.864C329.071 82.8125 328.971 82.6982 328.908 82.6648C328.844 82.6269 328.774 82.5974 328.698 82.5759C328.546 82.534 328.36 82.5533 328.22 82.6421C327.939 82.8278 327.853 83.1227 327.802 83.3785C327.756 83.6423 327.763 83.9026 327.792 84.1539C327.821 84.3956 327.844 84.6322 327.863 84.8716C327.934 85.8248 327.97 86.7626 327.915 87.6592C327.899 87.8827 327.875 88.104 327.833 88.3129C327.812 88.4176 327.783 88.5189 327.747 88.6061C327.729 88.6491 327.706 88.6893 327.685 88.7119C327.665 88.7589 327.647 88.7012 327.648 88.7776C327.677 88.7193 327.649 88.7515 327.627 88.7029C327.603 88.6763 327.583 88.6253 327.56 88.5857C327.52 88.4934 327.485 88.3961 327.453 88.2953C327.39 88.0944 327.342 87.8861 327.297 87.6807C326.961 86.0183 326.804 84.429 326.658 82.9914V83.0095C326.671 82.7186 326.652 82.4406 326.566 82.1678C326.523 82.0337 326.46 81.8967 326.345 81.7909C326.233 81.6816 326.071 81.633 325.926 81.6375L325.957 81.6409C325.73 81.6007 325.564 81.7382 325.47 81.8746C325.373 82.015 325.33 82.1673 325.296 82.3144C325.234 82.6116 325.235 82.894 325.221 83.1651C325.201 83.7096 325.196 84.2218 325.212 84.7007C325.23 85.6663 325.447 86.4655 325.524 87.1237C325.623 87.7814 325.696 88.2919 325.728 88.6361C325.763 88.7997 325.632 88.9049 325.563 88.9327C325.483 88.9655 325.437 88.9706 325.438 88.9774Z" fill="#A36957"/>
<path d="M288.621 117.859C288.621 117.859 287.056 117.784 285.346 118.235C282.426 119.004 277.386 122.062 277.178 125.84H280.838C280.838 125.84 278.788 130.209 279.391 129.804C280.954 128.755 284.065 125.589 284.065 125.589L288.621 117.859Z" fill="#B78876"/>
<path d="M338.554 52.0969C338.473 52.1043 338.141 49.0739 337.812 45.3298C337.483 41.5841 337.282 38.5429 337.363 38.5361C337.444 38.5288 337.776 41.5586 338.105 45.3044C338.434 49.0479 338.635 52.0896 338.554 52.0969Z" fill="white"/>
<path d="M354.614 38.7202C354.681 38.7672 352.207 42.3613 349.091 46.7461C345.974 51.1326 343.394 54.6491 343.327 54.6022C343.261 54.5552 345.734 50.9616 348.851 46.5751C351.967 42.1903 354.548 38.6732 354.614 38.7202Z" fill="white"/>
<path d="M361.286 55.0088C361.303 55.0886 358.416 55.7497 354.84 56.4855C351.263 57.2213 348.351 57.7533 348.335 57.6735C348.318 57.5937 351.204 56.9326 354.781 56.1968C358.357 55.4616 361.27 54.9296 361.286 55.0088Z" fill="white"/>
<path d="M169.011 132.752L149.02 235.651L146.403 249.121L279.858 248.461C285.847 248.432 291.155 243.108 293.082 235.197L316.746 138.051C318.209 132.045 314.999 125.8 310.452 125.805L175.381 125.947C172.399 125.951 169.792 128.737 169.011 132.752Z" fill="#E8505B"/>
<path d="M169.011 132.752L149.02 235.651L146.403 249.121L279.858 248.461C285.847 248.432 291.155 243.108 293.082 235.197L316.746 138.051C318.209 132.045 314.999 125.8 310.452 125.805L175.381 125.947C172.399 125.951 169.792 128.737 169.011 132.752Z" fill="#86179E"/>
<path d="M267.056 228.679L252.926 114.682C252.347 110.011 248.631 106.526 244.243 106.541L213.259 106.642C210.966 106.65 208.768 107.626 207.138 109.36L192.425 125.018L106.254 125.468C100.988 125.496 96.9424 130.484 97.6405 136.089L110.76 241.452C111.34 246.116 115.05 249.596 119.432 249.587L269.611 249.29C286.338 249.637 287.934 244.691 287.934 244.691C268.765 248.944 267.058 228.692 267.056 228.679Z" fill="#B747D0"/>
<g opacity="0.5">
<path d="M202.3 205.864L197.235 211.31L158.226 176.176L163.291 170.729L202.3 205.864Z" fill="white"/>
<path d="M195.113 169.522L200.71 174.564L165.414 212.518L159.816 207.476L195.113 169.522Z" fill="white"/>
</g>
<path d="M288.501 58.7429C288.14 58.5878 287.88 58.2363 287.861 57.8169L287.636 52.5621C287.621 52.2316 287.763 51.9135 288.017 51.703C288.271 51.4918 288.61 51.4132 288.932 51.489C289.775 51.6882 290.706 51.5043 291.484 50.9841C292.201 50.5053 292.682 49.8001 292.804 49.049C292.926 48.3007 292.694 47.4727 292.169 46.7765C291.607 46.0311 290.776 45.529 289.941 45.4334C288.239 45.237 286.401 46.5427 285.928 48.2849C285.775 48.8475 285.196 49.1803 284.634 49.0269C284.062 48.8696 283.74 48.2934 283.892 47.7308C284.635 44.9925 287.457 43.0205 290.183 43.3346C291.597 43.4976 292.936 44.2878 293.852 45.5024C294.723 46.6571 295.1 48.0732 294.886 49.3886C294.67 50.7159 293.857 51.9373 292.655 52.7404C291.787 53.3206 290.79 53.6409 289.794 53.6755L289.97 57.7258C289.994 58.3087 289.543 58.8012 288.96 58.8261C288.798 58.8334 288.642 58.8029 288.501 58.7429Z" fill="#B747D0"/>
<path d="M290.047 60.8892C290.08 61.3652 289.721 61.7778 289.245 61.8101C288.77 61.8429 288.358 61.4835 288.325 61.0075C288.292 60.5315 288.651 60.1189 289.126 60.0861C289.602 60.0532 290.014 60.4132 290.047 60.8892Z" fill="#B747D0"/>
<path d="M270.334 51.3331C270.341 51.3331 270.359 51.2165 270.385 50.9884C270.412 50.7422 270.449 50.4071 270.496 49.9764C270.521 49.5287 270.636 48.9876 270.77 48.3497C270.844 48.0328 270.883 47.6801 270.999 47.3236C271.109 46.9647 271.226 46.5838 271.349 46.1808C271.896 44.5915 272.74 42.6852 274.16 40.7891C275.57 38.8969 277.553 37.0274 280.098 35.6113C281.351 34.8631 282.784 34.3418 284.287 33.8816C285.813 33.5199 287.43 33.2098 289.12 33.25C289.965 33.2047 290.817 33.3286 291.685 33.4017C292.119 33.443 292.546 33.559 292.982 33.6348C293.417 33.7152 293.856 33.8007 294.282 33.949C296.028 34.3972 297.723 35.2213 299.339 36.243C302.582 38.2857 305.313 41.6092 306.811 45.638C307.563 47.6535 307.922 49.8632 307.919 52.0949C307.964 54.3312 307.532 56.6026 306.737 58.7409L306.482 59.3873L306.448 59.4727L306.483 59.5526C307.901 62.8223 309.291 66.0293 310.639 69.1366L310.877 68.8661C307.957 67.7431 305.126 66.6542 302.41 65.6093L302.306 65.5691L302.224 65.6489C299.875 67.9277 297.069 69.4677 294.229 70.2703C291.379 71.0746 288.51 71.1159 285.9 70.6512C283.284 70.1877 280.929 69.1859 278.965 67.8982C276.995 66.6106 275.415 65.045 274.198 63.454C272.989 61.8454 272.193 60.1961 271.592 58.7228C271.062 57.2172 270.738 55.8809 270.581 54.7749C270.514 54.2225 270.455 53.7312 270.403 53.3028C270.392 52.8794 270.383 52.5194 270.375 52.2212C270.366 51.9432 270.359 51.7236 270.353 51.5584C270.346 51.4095 270.34 51.3331 270.334 51.3331C270.329 51.3331 270.325 51.4084 270.321 51.5578C270.318 51.7236 270.316 51.9427 270.312 52.2223C270.312 52.5217 270.311 52.8845 270.311 53.3101C270.354 53.742 270.404 54.2372 270.46 54.7942C270.599 55.9109 270.908 57.2636 271.427 58.7913C272.017 60.2861 272.808 61.9631 274.019 63.6023C275.239 65.2239 276.829 66.8223 278.819 68.141C280.804 69.4598 283.191 70.4905 285.846 70.9739C288.495 71.4572 291.413 71.4272 294.315 70.6179C297.208 69.8107 300.071 68.2491 302.47 65.9308L302.283 65.9704C304.998 67.0192 307.826 68.1127 310.745 69.2402L311.172 69.4049L310.983 68.9697C309.637 65.8612 308.249 62.6537 306.833 59.3833L306.834 59.548L307.095 58.8875C307.907 56.7022 308.348 54.3787 308.302 52.0932C308.304 49.8123 307.933 47.5534 307.163 45.4948C305.628 41.3794 302.834 37.9976 299.525 35.9249C297.877 34.888 296.148 34.0559 294.371 33.6043C293.936 33.4554 293.49 33.37 293.047 33.2896C292.604 33.2137 292.169 33.0977 291.728 33.057C290.846 32.9862 289.979 32.8645 289.121 32.9138C287.403 32.8809 285.761 33.2024 284.214 33.5788C282.69 34.0537 281.238 34.592 279.971 35.3583C277.398 36.8112 275.403 38.7215 273.992 40.6498C272.571 42.5816 271.738 44.519 271.208 46.1299C271.09 46.5379 270.977 46.9245 270.872 47.2873C270.761 47.6484 270.727 48.0045 270.658 48.3248C270.536 48.97 270.433 49.5157 270.42 49.9668C270.389 50.3998 270.364 50.7382 270.346 50.9856C270.332 51.2154 270.328 51.3325 270.334 51.3331Z" fill="white"/>
</svg>
