<svg width="18" height="18" viewBox="0 0 18 18" fill="none" xmlns="http://www.w3.org/2000/svg">
<g clipPath="url(#clip0_50_4938)">
<path d="M12.3893 17.2952C12.1861 17.2952 11.9924 17.177 11.9058 16.9788C11.7892 16.7119 11.911 16.401 12.1779 16.2844C15.074 15.0191 16.9453 12.1598 16.9453 9C16.9452 5.8404 15.074 2.98118 12.1782 1.71584C11.9113 1.59923 11.7895 1.28834 11.9061 1.02147C12.0227 0.754561 12.3336 0.632639 12.6005 0.749393C15.8804 2.18257 17.9998 5.42113 18 8.99997C18 12.579 15.8805 15.8177 12.6002 17.2509C12.5315 17.281 12.4598 17.2952 12.3893 17.2952Z" fill="#4DBBEB"/>
<path d="M12.3895 13.3162C12.2447 13.3162 12.1006 13.2569 11.9964 13.1406C11.8021 12.9235 11.8205 12.5902 12.0376 12.3959C13.0027 11.5319 13.5562 10.2942 13.5562 8.99995C13.5562 7.70578 13.0027 6.46804 12.0376 5.60407C11.8205 5.40983 11.8021 5.07645 11.9964 4.85943C12.1906 4.64248 12.524 4.62402 12.741 4.81826C13.9293 5.88202 14.6109 7.40618 14.6109 8.99992C14.6109 10.5937 13.9293 12.1179 12.741 13.1816C12.6404 13.2719 12.5147 13.3162 12.3895 13.3162Z" fill="#4DBBEB"/>
<path d="M9.23836 2.03402C9.0611 1.94416 8.84837 1.96163 8.68816 2.07916L4.59105 5.08365H0.527344C0.236145 5.08365 0 5.31976 0 5.61099V12.3892C0 12.6804 0.236145 12.9165 0.527344 12.9165H4.59105L8.68813 15.9211C8.78034 15.9887 8.88986 16.0231 9.00007 16.0231C9.08139 16.0231 9.16309 16.0043 9.23836 15.9662C9.41562 15.8764 9.52734 15.6945 9.52734 15.4958V2.50441C9.52734 2.30571 9.41562 2.12384 9.23836 2.03402Z" fill="#4DBBEB"/>
<path d="M16.9453 9C16.9453 12.1598 15.074 15.019 12.1779 16.2844C11.911 16.401 11.7892 16.7119 11.9058 16.9788C11.9924 17.177 12.1861 17.2951 12.3893 17.2951C12.4598 17.2951 12.5315 17.2809 12.6002 17.2509C15.8804 15.8176 17.9999 12.579 18 9H16.9453Z" fill="#2488FF"/>
<path d="M12.0376 12.3959C11.8205 12.5901 11.8021 12.9235 11.9964 13.1405C12.1006 13.2569 12.2447 13.3161 12.3895 13.3161C12.5147 13.3161 12.6404 13.2718 12.741 13.1817C13.9293 12.1179 14.6109 10.5937 14.6109 9H13.5562C13.5562 10.2941 13.0026 11.5319 12.0376 12.3959Z" fill="#2488FF"/>
<path d="M0 12.389C0 12.6803 0.236145 12.9164 0.527344 12.9164H4.59105L8.68813 15.9209C8.78034 15.9886 8.88986 16.023 9.00007 16.023C9.08139 16.023 9.16309 16.0042 9.23836 15.9661C9.41562 15.8763 9.52734 15.6944 9.52734 15.4957V9H0V12.389Z" fill="#2488FF"/>
</g>
<defs>
<clipPath id="clip0_50_4938">
<rect width="18" height="18" fill="white"/>
</clipPath>
</defs>
</svg>
