<svg width="26" height="26" viewBox="0 0 26 26" fill="none" xmlns="http://www.w3.org/2000/svg">
<path fillRule="evenodd" clipRule="evenodd" d="M13.0003 23.8333C7.89344 23.8333 5.34 23.8333 3.7535 22.2468C2.16699 20.6603 2.16699 18.1069 2.16699 13C2.16699 7.89312 2.16699 5.33967 3.7535 3.75317C5.34 2.16666 7.89344 2.16666 13.0003 2.16666C18.1072 2.16666 20.6607 2.16666 22.2472 3.75317C23.8337 5.33967 23.8337 7.89312 23.8337 13C23.8337 18.1069 23.8337 20.6603 22.2472 22.2468C20.6607 23.8333 18.1072 23.8333 13.0003 23.8333ZM17.3665 9.71714C17.6838 10.0344 17.6838 10.5489 17.3665 10.8662L11.9499 16.2829C11.6325 16.6002 11.1181 16.6002 10.8008 16.2829L8.63413 14.1162C8.31683 13.7989 8.31683 13.2844 8.63413 12.9671C8.95144 12.6498 9.46588 12.6498 9.78318 12.9671L11.3753 14.5593L16.2175 9.71714C16.5348 9.39984 17.0492 9.39984 17.3665 9.71714Z" fill="#00C16B"/>
</svg>
