<svg width="47" height="43" viewBox="0 0 47 43" fill="none" xmlns="http://www.w3.org/2000/svg">
<path d="M25.411 9.72622L21.1383 1.18077C20.9608 0.825917 20.688 0.527495 20.3505 0.318945C20.013 0.110394 19.624 -4.60144e-05 19.2273 1.43819e-08H2.13636C1.56976 1.43819e-08 1.02637 0.22508 0.625726 0.625726C0.22508 1.02637 0 1.56976 0 2.13636V10.6818C0 11.2484 0.22508 11.7918 0.625726 12.1925C1.02637 12.5931 1.56976 12.8182 2.13636 12.8182H23.5C23.8642 12.8182 24.2224 12.7252 24.5405 12.5478C24.8586 12.3705 25.1261 12.1148 25.3175 11.805C25.509 11.4952 25.6181 11.1416 25.6345 10.7778C25.6508 10.4139 25.5739 10.052 25.411 9.72622Z" fill="#376CFB"/>
<path d="M44.8636 8.54541H0V40.5909C0 41.1575 0.22508 41.7009 0.625726 42.1015C1.02637 42.5022 1.56976 42.7272 2.13636 42.7272H44.8636C45.4302 42.7272 45.9736 42.5022 46.3743 42.1015C46.7749 41.7009 47 41.1575 47 40.5909V10.6818C47 10.1152 46.7749 9.57178 46.3743 9.17114C45.9736 8.77049 45.4302 8.54541 44.8636 8.54541Z" fill="#4294FF"/>
</svg>
