<svg width="21" height="20" viewBox="0 0 21 20" fill="none" xmlns="http://www.w3.org/2000/svg">
<path d="M19.8923 7.84904C19.14 6.61714 18.1911 5.51675 17.0831 4.59154L19.4165 2.25821C19.5683 2.10104 19.6523 1.89054 19.6504 1.67204C19.6485 1.45354 19.5608 1.24453 19.4063 1.09003C19.2518 0.935518 19.0428 0.847877 18.8243 0.845979C18.6058 0.84408 18.3953 0.928075 18.2381 1.07987L15.7006 3.62071C14.1276 2.68639 12.3293 2.19943 10.4998 2.21237C5.34063 2.21237 2.40063 5.74404 1.1073 7.84904C0.707739 8.4953 0.496094 9.24007 0.496094 9.99987C0.496094 10.7597 0.707739 11.5045 1.1073 12.1507C1.8596 13.3826 2.80854 14.483 3.91646 15.4082L1.58313 17.7415C1.50354 17.8184 1.44005 17.9104 1.39638 18.012C1.35271 18.1137 1.32972 18.2231 1.32876 18.3337C1.32779 18.4444 1.34888 18.5541 1.39078 18.6565C1.43268 18.7589 1.49456 18.852 1.5728 18.9302C1.65105 19.0084 1.74409 19.0703 1.8465 19.1122C1.94892 19.1541 2.05865 19.1752 2.1693 19.1742C2.27995 19.1733 2.3893 19.1503 2.49097 19.1066C2.59264 19.063 2.68459 18.9995 2.76147 18.9199L5.3048 16.3765C6.87585 17.3107 8.67202 17.7985 10.4998 17.7874C15.659 17.7874 18.599 14.2557 19.8923 12.1507C20.2919 11.5045 20.5035 10.7597 20.5035 9.99987C20.5035 9.24007 20.2919 8.4953 19.8923 7.84904V7.84904ZM2.5273 11.2782C2.28991 10.8941 2.16417 10.4514 2.16417 9.99987C2.16417 9.54831 2.28991 9.10567 2.5273 8.72154C3.63897 6.91654 6.15147 3.87904 10.4998 3.87904C11.8834 3.87129 13.2475 4.20474 14.4715 4.84987L12.794 6.52737C11.9939 5.99621 11.0347 5.7582 10.0792 5.85375C9.1236 5.94929 8.23052 6.37249 7.55147 7.05154C6.87241 7.7306 6.44921 8.62367 6.35367 9.57923C6.25813 10.5348 6.49613 11.494 7.0273 12.294L5.1023 14.219C4.08155 13.3938 3.2105 12.399 2.5273 11.2782V11.2782ZM12.9998 9.99987C12.9998 10.6629 12.7364 11.2988 12.2676 11.7676C11.7987 12.2365 11.1628 12.4999 10.4998 12.4999C10.1286 12.4984 9.76246 12.413 9.42897 12.2499L12.7498 8.92904C12.9129 9.26254 12.9984 9.62863 12.9998 9.99987V9.99987ZM7.9998 9.99987C7.9998 9.33683 8.26319 8.70095 8.73203 8.23211C9.20087 7.76327 9.83676 7.49987 10.4998 7.49987C10.871 7.50131 11.2371 7.58678 11.5706 7.74987L8.2498 11.0707C8.08671 10.7372 8.00124 10.3711 7.9998 9.99987ZM18.4723 11.2782C17.3606 13.0832 14.8481 16.1207 10.4998 16.1207C9.11624 16.1285 7.7521 15.795 6.52813 15.1499L8.20563 13.4724C9.00569 14.0035 9.96488 14.2415 10.9204 14.146C11.876 14.0505 12.7691 13.6273 13.4481 12.9482C14.1272 12.2692 14.5504 11.3761 14.6459 10.4205C14.7415 9.46495 14.5035 8.50576 13.9723 7.70571L15.8973 5.78071C16.918 6.60594 17.7891 7.60075 18.4723 8.72154C18.7097 9.10567 18.8354 9.54831 18.8354 9.99987C18.8354 10.4514 18.7097 10.8941 18.4723 11.2782V11.2782Z" fill="#999999"/>
</svg>
