<svg width="21" height="22" viewBox="0 0 21 22" fill="none" xmlns="http://www.w3.org/2000/svg">
<path fillRule="evenodd" clipRule="evenodd" d="M13.5 0.25H9.44358C7.60583 0.249985 6.15019 0.249972 5.01098 0.403135C3.83856 0.560763 2.88961 0.892881 2.14124 1.64124C1.39288 2.38961 1.06076 3.33856 0.903135 4.51098C0.749972 5.65019 0.749985 7.10582 0.75 8.94357V15C0.75 16.8722 2.12205 18.424 3.91551 18.7047C4.05348 19.4687 4.31753 20.1208 4.84835 20.6517C5.45027 21.2536 6.20814 21.5125 7.10825 21.6335C7.97522 21.75 9.07754 21.75 10.4451 21.75H13.5549C14.9225 21.75 16.0248 21.75 16.8918 21.6335C17.7919 21.5125 18.5497 21.2536 19.1517 20.6517C19.7536 20.0497 20.0125 19.2919 20.1335 18.3918C20.25 17.5248 20.25 16.4225 20.25 15.0549V9.94513C20.25 8.57754 20.25 7.47522 20.1335 6.60825C20.0125 5.70814 19.7536 4.95027 19.1517 4.34835C18.6208 3.81753 17.9687 3.55348 17.2047 3.41551C16.924 1.62205 15.3722 0.25 13.5 0.25ZM15.6293 3.27117C15.3265 2.38623 14.4876 1.75 13.5 1.75H9.5C7.59318 1.75 6.23851 1.75159 5.21085 1.88976C4.20476 2.02502 3.62511 2.27869 3.2019 2.7019C2.77869 3.12511 2.52502 3.70476 2.38976 4.71085C2.25159 5.73851 2.25 7.09318 2.25 9V15C2.25 15.9876 2.88624 16.8265 3.77117 17.1293C3.74998 16.5194 3.74999 15.8297 3.75 15.0549V9.94513C3.74998 8.57754 3.74996 7.47522 3.86652 6.60825C3.98754 5.70814 4.24643 4.95027 4.84835 4.34835C5.45027 3.74643 6.20814 3.48754 7.10825 3.36652C7.97522 3.24996 9.07754 3.24998 10.4451 3.25H13.5549C14.3297 3.24999 15.0194 3.24998 15.6293 3.27117ZM5.90901 5.40901C6.18577 5.13225 6.57435 4.9518 7.30812 4.85315C8.06347 4.75159 9.06458 4.75 10.5 4.75H13.5C14.9354 4.75 15.9365 4.75159 16.6919 4.85315C17.4257 4.9518 17.8142 5.13225 18.091 5.40901C18.3678 5.68577 18.5482 6.07435 18.6469 6.80812C18.7484 7.56347 18.75 8.56458 18.75 10V15C18.75 16.4354 18.7484 17.4365 18.6469 18.1919C18.5482 18.9257 18.3678 19.3142 18.091 19.591C17.8142 19.8678 17.4257 20.0482 16.6919 20.1469C15.9365 20.2484 14.9354 20.25 13.5 20.25H10.5C9.06458 20.25 8.06347 20.2484 7.30812 20.1469C6.57435 20.0482 6.18577 19.8678 5.90901 19.591C5.63225 19.3142 5.4518 18.9257 5.35315 18.1919C5.25159 17.4365 5.25 16.4354 5.25 15V10C5.25 8.56458 5.25159 7.56347 5.35315 6.80812C5.4518 6.07435 5.63225 5.68577 5.90901 5.40901Z" fill="#B2B3CA"/>
</svg>
