<svg id="Layer_1" enable-background="new 0 0 512 512" height="512" viewBox="0 0 512 512" width="512" xmlns="http://www.w3.org/2000/svg"><g><g clipRule="evenodd" fillRule="evenodd"><path d="m168.609 0h173.378l153.07 153.07v293.997c0 35.729-29.204 64.933-64.933 64.933h-261.515c-35.729 0-64.933-29.204-64.933-64.933v-382.134c0-35.73 29.203-64.933 64.933-64.933z" fill="#00733b"/><path d="m341.987 0 153.07 153.07h-136.566c-9.101 0-16.504-7.403-16.504-16.504z" fill="#005c2f"/><path d="m31.194 218.003h352.638c7.842 0 14.251 6.408 14.251 14.251v129.368c0 7.842-6.408 14.28-14.251 14.28h-352.638c-7.842 0-14.251-6.438-14.251-14.28v-129.368c0-7.843 6.408-14.251 14.251-14.251z" fill="#005c2f"/></g><path d="m103.339 279.278v35.348c0 10.108 8.224 18.332 18.333 18.332 10.108 0 18.332-8.224 18.332-18.332 0-4.566 3.701-8.267 8.266-8.267 4.566 0 8.266 3.701 8.266 8.267 0 19.225-15.64 34.865-34.865 34.865s-34.866-15.641-34.866-34.865v-35.348c0-19.225 15.641-34.865 34.866-34.865s34.865 15.641 34.865 34.865c0 4.566-3.701 8.267-8.266 8.267-4.566 0-8.266-3.701-8.266-8.267 0-10.108-8.224-18.332-18.332-18.332-10.109 0-18.333 8.224-18.333 18.332zm97.868-18.332h13.168c5.317 0 9.642 4.325 9.642 9.642 0 4.566 3.701 8.266 8.266 8.266 4.566 0 8.266-3.701 8.266-8.266 0-14.433-11.742-26.175-26.175-26.175h-13.168c-16.772 0-30.418 13.633-30.418 30.388 0 14.831 7.62 22.065 14.012 25.523 8.111 4.387 18.341 4.894 25.33 4.894 7.656 0 13.885 6.216 13.885 13.855 0 7.656-6.229 13.885-13.885 13.885h-13.168c-5.316 0-9.642-4.325-9.642-9.642 0-4.566-3.701-8.267-8.266-8.267-4.566 0-8.266 3.701-8.266 8.267 0 14.433 11.742 26.175 26.175 26.175h13.168c16.772 0 30.418-13.646 30.418-30.418 0-16.757-13.646-30.388-30.418-30.388-21.093 0-22.809-6.289-22.809-13.885 0-7.638 6.228-13.854 13.885-13.854zm121.351-16.112c-4.332-1.44-9.012.907-10.451 5.239l-21.563 64.925-21.563-64.925c-1.439-4.332-6.116-6.677-10.451-5.239-4.333 1.439-6.679 6.118-5.24 10.451l29.409 88.546c1.123 3.379 4.283 5.661 7.845 5.661s6.723-2.281 7.845-5.661l29.408-88.546c1.439-4.333-.906-9.012-5.239-10.451z" fill="#fff"/></g></svg>