<svg width="18" height="20" viewBox="0 0 18 20" fill="none" xmlns="http://www.w3.org/2000/svg">
<path d="M0 4.52381C0 4.12932 0.32671 3.80952 0.72973 3.80952H5.51787C5.52437 2.9683 5.61554 1.81504 6.45037 1.01668C7.1074 0.38839 8.0081 0 9 0C9.9919 0 10.8926 0.38839 11.5496 1.01668C12.3844 1.81504 12.4756 2.9683 12.4821 3.80952H17.2703C17.6733 3.80952 18 4.12932 18 4.52381C18 4.9183 17.6733 5.2381 17.2703 5.2381H0.72973C0.32671 5.2381 0 4.9183 0 4.52381Z" fill="#FF4D49"/>
<path fillRule="evenodd" clipRule="evenodd" d="M8.5956 19.9996H9.4044C12.1871 19.9996 13.5785 19.9996 14.4831 19.1137C15.3878 18.2277 15.4803 16.7745 15.6654 13.8681L15.9321 9.68024C16.0326 8.10324 16.0828 7.31475 15.6289 6.81509C15.1751 6.31543 14.4087 6.31543 12.876 6.31543H5.12404C3.59127 6.31543 2.82488 6.31543 2.37105 6.81509C1.91722 7.31475 1.96744 8.10324 2.06788 9.68024L2.33459 13.8681C2.5197 16.7745 2.61225 18.2277 3.51689 19.1137C4.42153 19.9996 5.81289 19.9996 8.5956 19.9996ZM7.2463 10.1881C7.2051 9.75424 6.83753 9.43774 6.42537 9.48114C6.01321 9.52454 5.71251 9.91134 5.75372 10.3452L6.25372 15.6083C6.29494 16.0422 6.66247 16.3587 7.0746 16.3153C7.4868 16.272 7.7875 15.8851 7.7463 15.4512L7.2463 10.1881ZM11.5746 9.48114C11.9868 9.52454 12.2875 9.91134 12.2463 10.3452L11.7463 15.6083C11.7051 16.0422 11.3375 16.3587 10.9254 16.3153C10.5132 16.272 10.2125 15.8851 10.2537 15.4512L10.7537 10.1881C10.7949 9.75424 11.1625 9.43774 11.5746 9.48114Z" fill="#FF4D49"/>
</svg>
