<svg width="683" height="683" viewBox="0 0 683 683" fill="none" xmlns="http://www.w3.org/2000/svg">
<g clipPath="url(#clip0_172_1263)">
<path d="M664.261 296.927C664.245 296.911 664.229 296.896 664.214 296.88L385.74 18.4167C373.87 6.54167 358.089 0 341.302 0C324.516 0 308.735 6.53646 296.86 18.4115L18.5315 296.734C18.4377 296.828 18.344 296.927 18.2502 297.021C-6.12479 321.536 -6.08312 361.313 18.37 385.766C29.5419 396.943 44.2971 403.417 60.0731 404.094C60.7138 404.156 61.3596 404.188 62.0106 404.188H73.1096V609.12C73.1096 649.672 106.104 682.667 146.667 682.667H255.615C266.656 682.667 275.615 673.714 275.615 662.667V502C275.615 483.495 290.667 468.443 309.172 468.443H373.433C391.938 468.443 406.99 483.495 406.99 502V662.667C406.99 673.714 415.943 682.667 426.99 682.667H535.938C576.5 682.667 609.495 649.672 609.495 609.12V404.188H619.787C636.568 404.188 652.349 397.651 664.229 385.776C688.709 361.281 688.719 321.438 664.261 296.927Z" fill="#666CFF"/>
</g>
<defs>
<clipPath id="clip0_172_1263">
<rect width="682.667" height="682.667" fill="white"/>
</clipPath>
</defs>
</svg>
