<svg width="18" height="18" viewBox="0 0 18 18" fill="none" xmlns="http://www.w3.org/2000/svg">
<path d="M17.0625 4.5V13.5C17.0617 14.4446 16.6861 15.3503 16.0182 16.0182C15.3503 16.6861 14.4446 17.0617 13.5 17.0625H4.5C4.10427 17.0637 3.7112 16.9977 3.3375 16.8675C2.63691 16.6255 2.02921 16.1711 1.59903 15.5675C1.16885 14.9639 0.937609 14.2412 0.9375 13.5V4.5C0.938294 3.55541 1.31388 2.64974 1.98181 1.98181C2.64974 1.31388 3.55541 0.938294 4.5 0.9375H13.5C14.4446 0.938294 15.3503 1.31388 16.0182 1.98181C16.6861 2.64974 17.0617 3.55541 17.0625 4.5Z" fill="#E1F5FE"/>
<path d="M11.0625 14.25V17.0625H4.5C4.10427 17.0637 3.7112 16.9977 3.3375 16.8675C2.63691 16.6255 2.02921 16.1711 1.59903 15.5675C1.16885 14.9639 0.937609 14.2412 0.9375 13.5V11.4525L3.3075 9.87C3.66172 9.63294 4.08097 9.51206 4.50703 9.52416C4.93308 9.53626 5.3448 9.68072 5.685 9.9375L8.3025 11.9025L10.8375 13.8C10.9078 13.8519 10.9649 13.9198 11.004 13.998C11.0431 14.0762 11.0632 14.1626 11.0625 14.25Z" fill="#62D8B6"/>
<path d="M6.46875 6.84375C7.50428 6.84375 8.34375 6.00428 8.34375 4.96875C8.34375 3.93322 7.50428 3.09375 6.46875 3.09375C5.43322 3.09375 4.59375 3.93322 4.59375 4.96875C4.59375 6.00428 5.43322 6.84375 6.46875 6.84375Z" fill="#FFDE76"/>
<path d="M17.0629 9.78V13.5C17.0621 14.4446 16.6865 15.3503 16.0186 16.0182C15.3507 16.6861 14.445 17.0617 13.5004 17.0625H4.50039C4.10466 17.0637 3.71159 16.9977 3.33789 16.8675L11.5879 8.6175C11.8926 8.31042 12.2865 8.1074 12.7135 8.03737C13.1404 7.96734 13.5785 8.03388 13.9654 8.2275L17.0629 9.78Z" fill="#4CC19D"/>
</svg>
