<svg width="34" height="34" viewBox="0 0 34 34" fill="none" xmlns="http://www.w3.org/2000/svg">
<path d="M12.0046 16.6009C11.4995 17.1061 11.4995 17.9252 12.0046 18.4304L17.1009 23.5266C17.6541 24.0798 17.6541 24.9765 17.1009 25.5297C16.5476 26.083 15.6509 26.083 15.0977 25.5297L8.25956 18.6916C7.61009 18.0421 7.61009 16.9892 8.25956 16.3397L15.0977 9.50157C15.6509 8.94841 16.5476 8.94841 17.1009 9.50157C17.6541 10.0547 17.6541 10.9516 17.1009 11.5047L12.0046 16.6009Z" fill="#EAEAFF"/>
<path opacity="0.6" d="M20.3413 16.7643C19.9262 17.1793 19.9262 17.852 20.3413 18.2671L25.6008 23.5266C26.154 24.0798 26.154 24.9765 25.6008 25.5297C25.0476 26.083 24.1508 26.083 23.5976 25.5297L16.5496 18.4817C16.016 17.9482 16.016 17.0832 16.5496 16.5496L23.5976 9.50157C24.1508 8.94841 25.0476 8.94841 25.6008 9.50157C26.154 10.0547 26.154 10.9516 25.6008 11.5047L20.3413 16.7643Z" fill="#EAEAFF"/>
</svg>
