<svg width="20" height="18" viewBox="0 0 20 18" fill="none" xmlns="http://www.w3.org/2000/svg">
<path d="M2.00215 12.0214C1.22304 11.0092 0.833496 10.5031 0.833496 9.00033C0.833496 7.49754 1.22304 6.99148 2.00215 5.9793C3.55779 3.95826 6.16676 1.66699 10.0002 1.66699C13.8336 1.66699 16.4425 3.95826 17.9982 5.9793C18.7772 6.99148 19.1668 7.49754 19.1668 9.00033C19.1668 10.5031 18.7772 11.0092 17.9982 12.0214C16.4425 14.0424 13.8336 16.3337 10.0002 16.3337C6.16676 16.3337 3.55779 14.0424 2.00215 12.0214Z" stroke="#999999" strokeWidth="1.5"/>
<path d="M12.75 9C12.75 10.5188 11.5188 11.75 10 11.75C8.48117 11.75 7.25 10.5188 7.25 9C7.25 7.48117 8.48117 6.25 10 6.25C11.5188 6.25 12.75 7.48117 12.75 9Z" stroke="#999999" strokeWidth="1.5"/>
</svg>
