<svg width="55" height="43" viewBox="0 0 55 43" fill="none" xmlns="http://www.w3.org/2000/svg">
<path d="M52.4375 14.375H47.6875V9.625C47.6882 9.15699 47.5964 8.69346 47.4176 8.26095C47.2388 7.82845 46.9764 7.43547 46.6455 7.10454C46.3146 6.77361 45.9216 6.51122 45.4891 6.33241C45.0566 6.1536 44.5931 6.06188 44.125 6.0625H26.0157C25.4854 6.06262 24.9619 5.94434 24.4832 5.71629C24.0045 5.48825 23.5828 5.1562 23.2488 4.74438L20.9213 1.8825C20.4776 1.33353 19.9168 0.89078 19.2798 0.586678C18.6428 0.282576 17.9459 0.124832 17.24 0.125003H3.75004C3.28203 0.124378 2.8185 0.216098 2.38599 0.394909C1.95349 0.57372 1.56051 0.836108 1.22958 1.16704C0.898647 1.49797 0.636259 1.89095 0.457448 2.32345C0.278637 2.75596 0.186917 3.21949 0.187542 3.6875V38.8019C0.185086 39.3368 0.28997 39.8667 0.495984 40.3603C0.701998 40.8539 1.00495 41.3012 1.38692 41.6756C1.76135 42.0576 2.20862 42.3606 2.70224 42.5666C3.19586 42.7726 3.72579 42.8775 4.26067 42.875H44.2319C45.1142 42.8747 45.9727 42.5888 46.6791 42.0601C47.3854 41.5315 47.9017 40.7883 48.1507 39.9419L54.7175 17.415C54.82 17.0611 54.8388 16.6882 54.7726 16.3257C54.7063 15.9633 54.5567 15.6212 54.3356 15.3264C54.1146 15.0317 53.828 14.7923 53.4986 14.6272C53.1692 14.4621 52.806 14.3757 52.4375 14.375Z" fill="#376CFB"/>
<path d="M52.4368 14.375H18.6806C17.7993 14.3751 16.9418 14.6611 16.2369 15.1899C15.5319 15.7188 15.0175 16.462 14.7708 17.3081L8.1683 39.9435C7.92164 40.7892 7.40735 41.5321 6.70261 42.0607C5.99786 42.5892 5.1407 42.875 4.25977 42.875H44.2355C45.117 42.8751 45.9747 42.5892 46.6799 42.0604C47.385 41.5315 47.8996 40.7881 48.1463 39.9419L54.7169 17.415C54.8201 17.061 54.8395 16.6879 54.7736 16.3251C54.7076 15.9623 54.5581 15.6199 54.3368 15.325C54.1156 15.03 53.8287 14.7906 53.4989 14.6257C53.1691 14.4608 52.8055 14.375 52.4368 14.375Z" fill="#4294FF"/>
</svg>
