<svg width="24" height="22" viewBox="0 0 24 22" fill="none" xmlns="http://www.w3.org/2000/svg">
<path d="M23.2706 8.41879C22.3678 6.94051 21.2291 5.62004 19.8996 4.50979L22.6996 1.70979C22.8817 1.52119 22.9825 1.26858 22.9802 1.00639C22.978 0.74419 22.8728 0.493377 22.6874 0.307969C22.502 0.122561 22.2512 0.0173919 21.989 0.0151135C21.7268 0.0128351 21.4742 0.11363 21.2856 0.295788L18.2406 3.34479C16.353 2.22361 14.195 1.63925 11.9996 1.65479C5.80856 1.65479 2.28056 5.89279 0.728563 8.41879C0.249091 9.19429 -0.00488281 10.088 -0.00488281 10.9998C-0.00488281 11.9115 0.249091 12.8053 0.728563 13.5808C1.63132 15.0591 2.77005 16.3795 4.09956 17.4898L1.29956 20.2898C1.20405 20.382 1.12787 20.4924 1.07546 20.6144C1.02305 20.7364 0.995466 20.8676 0.994313 21.0004C0.993159 21.1332 1.01846 21.2648 1.06874 21.3877C1.11902 21.5106 1.19328 21.6223 1.28717 21.7162C1.38106 21.8101 1.49271 21.8843 1.61561 21.9346C1.73851 21.9849 1.87018 22.0102 2.00296 22.009C2.13574 22.0079 2.26696 21.9803 2.38897 21.9279C2.51097 21.8755 2.62132 21.7993 2.71356 21.7038L5.76556 18.6518C7.65083 19.7728 9.80623 20.3581 11.9996 20.3448C18.1906 20.3448 21.7186 16.1068 23.2706 13.5808C23.75 12.8053 24.004 11.9115 24.004 10.9998C24.004 10.088 23.75 9.19429 23.2706 8.41879ZM2.43256 12.5338C2.1477 12.0728 1.99681 11.5417 1.99681 10.9998C1.99681 10.4579 2.1477 9.92674 2.43256 9.46579C3.76656 7.29979 6.78156 3.65479 11.9996 3.65479C13.6598 3.64549 15.2968 4.04563 16.7656 4.81979L14.7526 6.83279C13.7925 6.19539 12.6415 5.90978 11.4948 6.02443C10.3481 6.13908 9.27643 6.64693 8.46157 7.46179C7.6467 8.27665 7.13886 9.34835 7.02421 10.495C6.90956 11.6417 7.19516 12.7927 7.83256 13.7528L5.52256 16.0628C4.29767 15.0725 3.2524 13.8787 2.43256 12.5338ZM14.9996 10.9998C14.9996 11.7954 14.6835 12.5585 14.1209 13.1211C13.5583 13.6837 12.7952 13.9998 11.9996 13.9998C11.5541 13.9981 11.1148 13.8955 10.7146 13.6998L14.6996 9.71479C14.8953 10.115 14.9978 10.5543 14.9996 10.9998ZM8.99956 10.9998C8.99956 10.2041 9.31563 9.44108 9.87824 8.87847C10.4409 8.31586 11.2039 7.99979 11.9996 7.99979C12.4451 8.00151 12.8844 8.10408 13.2846 8.29979L9.29956 12.2848C9.10385 11.8846 9.00129 11.4453 8.99956 10.9998ZM21.5666 12.5338C20.2326 14.6998 17.2176 18.3448 11.9996 18.3448C10.3393 18.3541 8.70233 17.954 7.23356 17.1798L9.24656 15.1668C10.2066 15.8042 11.3577 16.0898 12.5043 15.9751C13.651 15.8605 14.7227 15.3526 15.5376 14.5378C16.3524 13.7229 16.8603 12.6512 16.9749 11.5046C17.0896 10.3579 16.804 9.20685 16.1666 8.24679L18.4766 5.93679C19.7015 6.92707 20.7467 8.12084 21.5666 9.46579C21.8514 9.92674 22.0023 10.4579 22.0023 10.9998C22.0023 11.5417 21.8514 12.0728 21.5666 12.5338Z" fill="#B2B3CA"/>
</svg>
