<svg width="20" height="20" viewBox="0 0 20 20" fill="none" xmlns="http://www.w3.org/2000/svg">
<path fillRule="evenodd" clipRule="evenodd" d="M9.54167 1.52081C5.11188 1.52081 1.52083 5.11186 1.52083 9.54165C1.52083 13.9714 5.11188 17.5625 9.54167 17.5625C13.9714 17.5625 17.5625 13.9714 17.5625 9.54165C17.5625 5.11186 13.9714 1.52081 9.54167 1.52081ZM0.145832 9.54165C0.145832 4.35247 4.35249 0.145813 9.54167 0.145813C14.7308 0.145813 18.9375 4.35247 18.9375 9.54165C18.9375 11.8888 18.0769 14.0349 16.654 15.6817L19.6528 18.6805C19.9213 18.949 19.9213 19.3843 19.6528 19.6528C19.3843 19.9213 18.949 19.9213 18.6805 19.6528L15.6817 16.6539C14.0349 18.0768 11.8888 18.9375 9.54167 18.9375C4.35249 18.9375 0.145832 14.7308 0.145832 9.54165Z" fill="#6D788D"/>
</svg>
