<svg width="16" height="15" viewBox="0 0 16 15" fill="none" xmlns="http://www.w3.org/2000/svg">
<path fillRule="evenodd" clipRule="evenodd" d="M7.66732 1.33331C4.44566 1.33331 1.83398 3.94499 1.83398 7.16665C1.83398 10.3883 4.44566 13 7.66732 13C10.889 13 13.5007 10.3883 13.5007 7.16665C13.5007 3.94499 10.889 1.33331 7.66732 1.33331ZM0.833984 7.16665C0.833984 3.3927 3.89337 0.333313 7.66732 0.333313C11.4413 0.333313 14.5007 3.3927 14.5007 7.16665C14.5007 8.87365 13.8747 10.4345 12.8399 11.6321L15.0209 13.8131C15.2161 14.0084 15.2161 14.3249 15.0209 14.5202C14.8256 14.7155 14.509 14.7155 14.3138 14.5202L12.1328 12.3392C10.9351 13.3741 9.37433 14 7.66732 14C3.89337 14 0.833984 10.9406 0.833984 7.16665Z" fill="#D7D8ED"/>
</svg>
