<svg width="40" height="41" viewBox="0 0 40 41" fill="none" xmlns="http://www.w3.org/2000/svg">
<rect y="0.5" width="40" height="40" rx="20" fill="#3A3E58"/>
<path d="M20.5 29.6241C21.1473 29.6241 21.6719 29.0995 21.6719 28.4522V13.5478C21.6719 12.9005 21.1473 12.3759 20.5 12.3759C19.8527 12.3759 19.3281 12.9005 19.3281 13.5478V28.4522C19.3281 29.0995 19.8527 29.6241 20.5 29.6241Z" fill="white"/>
<path d="M13.0478 22.1719H27.9521C28.5995 22.1719 29.124 21.6473 29.124 21C29.124 20.3527 28.5995 19.8281 27.9521 19.8281H13.0478C12.4004 19.8281 11.8759 20.3527 11.8759 21C11.8759 21.6473 12.4004 22.1719 13.0478 22.1719Z" fill="white"/>
</svg>
