<svg width="40" height="40" viewBox="0 0 40 40" fill="none" xmlns="http://www.w3.org/2000/svg">
<rect width="40" height="40" rx="6" fill="#3A3E58"/>
<path d="M20.5535 10.4939C20.4114 10.3385 20.2106 10.25 20 10.25C19.7894 10.25 19.5886 10.3385 19.4465 10.4939L15.4465 14.8689C15.167 15.1746 15.1882 15.649 15.4939 15.9285C15.7996 16.208 16.274 16.1868 16.5535 15.8811L19.25 12.9318V24C19.25 24.4142 19.5858 24.75 20 24.75C20.4142 24.75 20.75 24.4142 20.75 24V12.9318L23.4465 15.8811C23.726 16.1868 24.2004 16.208 24.5061 15.9285C24.8118 15.649 24.833 15.1746 24.5535 14.8689L20.5535 10.4939Z" fill="#D7D8ED"/>
<path d="M11.75 23C11.75 22.5858 11.4142 22.25 11 22.25C10.5858 22.25 10.25 22.5858 10.25 23V23.0549C10.25 24.4225 10.25 25.5248 10.3665 26.3918C10.4875 27.2919 10.7464 28.0497 11.3484 28.6516C11.9503 29.2536 12.7081 29.5125 13.6083 29.6335C14.4752 29.75 15.5775 29.75 16.9451 29.75H23.0549C24.4225 29.75 25.5248 29.75 26.3918 29.6335C27.2919 29.5125 28.0497 29.2536 28.6517 28.6516C29.2536 28.0497 29.5125 27.2919 29.6335 26.3918C29.75 25.5248 29.75 24.4225 29.75 23.0549V23C29.75 22.5858 29.4142 22.25 29 22.25C28.5858 22.25 28.25 22.5858 28.25 23C28.25 24.4354 28.2484 25.4365 28.1469 26.1919C28.0482 26.9257 27.8678 27.3142 27.591 27.591C27.3142 27.8678 26.9257 28.0482 26.1919 28.1469C25.4365 28.2484 24.4354 28.25 23 28.25H17C15.5646 28.25 14.5635 28.2484 13.8081 28.1469C13.0743 28.0482 12.6858 27.8678 12.409 27.591C12.1322 27.3142 11.9518 26.9257 11.8531 26.1919C11.7516 25.4365 11.75 24.4354 11.75 23Z" fill="#D7D8ED"/>
</svg>
